<?xml version="1.0" encoding="UTF-8"?>
<svg id="Layer_1" data-name="Layer 1" xmlns="http://www.w3.org/2000/svg" viewBox="0 0 300 172">
  <defs>
    <style>
      .cls-1 {
        fill: #101216;
        fill-rule: evenodd;
      }
    </style>
  </defs>
  <path class="cls-1" d="M74,66v39h38.7v-39h-38.7Zm18.51,18.79l-3.93,1.23-3.23-5.59c0-.07-.13,0-.13,0v6.63l-4.77,1.56v-16.77h4.84l3.23,5.72c0,.07,.13,0,.13,0v-5.72h3.93v12.94h-.06Zm13.29,2.53l-3.55,.78c-.07,0-.07,.07-.07,.13v10.27h-4.64v-9.17c0-.07-.06-.13-.13-.13l-3.61,.85v-5.07l12-3.84v6.18Zm113.33-5.92v1.3h-1.87v6.05c0,.06,.06,.26,.13,.39,.06,.13,.19,.26,.32,.33,.13,.06,.32,.06,.65,.06,.26,0,.52,0,.84-.06v1.3c-.45,.07-.84,.07-1.16,.07-.45,0-.77-.07-1.1-.13-.26-.06-.52-.19-.65-.32-.13-.13-.26-.33-.32-.65-.01-.07-.03-.13-.04-.2-.05-.24-.09-.43-.09-.58v-6.31h-1.55v-1.3h1.55v-2.8h1.55v2.8h1.74v.06Zm-6.06,0v9.36h-1.55v-9.36h1.55Zm0-3.58v1.89h-1.55v-1.89h1.55Zm-3.35,6.31h-1.55c-.06-1.17-.84-1.69-2.26-1.69-.58,0-1.03,.13-1.42,.33-.32,.26-.51,.52-.51,.91,0,.13,0,.19,.06,.32,0,.06,.06,.19,.13,.26l.19,.19c.06,.07,.13,.13,.26,.2,.05,.02,.1,.04,.14,.05,.07,.02,.12,.04,.12,.08,.04,.04,.1,.06,.19,.08,.05,.01,.12,.03,.19,.05,.19,.07,.32,.07,.39,.07,.02,0,.06,0,.1,.02,.07,.02,.17,.05,.29,.05,.19,.07,.39,.07,.39,.07,.38,.06,.67,.16,.87,.23,.02,0,.04,.02,.06,.02,.01,0,.02,0,.03,.01,.14,.04,.29,.09,.46,.16h0c.13,.05,.27,.11,.45,.17,.39,.13,.71,.33,.9,.52,.19,.19,.39,.39,.52,.71,.19,.32,.26,.65,.26,1.04,0,.91-.39,1.62-1.1,2.21-.71,.52-1.61,.85-2.77,.85-1.29,0-2.26-.26-2.9-.85-.65-.59-1.03-1.37-1.1-2.41h1.55c.06,1.3,.9,2.01,2.51,2.01,.71,0,1.23-.13,1.61-.39,.45-.26,.65-.65,.65-1.17,0-.33-.13-.58-.32-.78-.19-.19-.45-.32-.71-.46-.11-.03-.24-.06-.39-.11-.21-.06-.47-.14-.77-.22-.07,0-.13,0-.19-.07-.07,0-.16-.02-.29-.05-.11-.02-.24-.05-.42-.08-.32-.06-.58-.13-.77-.2-.13-.06-.39-.13-.71-.19-.09-.05-.18-.08-.27-.12-.16-.06-.29-.12-.38-.21-.06-.06-.13-.12-.21-.18h0c-.1-.08-.2-.17-.31-.27-.15-.15-.22-.31-.31-.5-.02-.05-.05-.1-.07-.15-.06-.26-.13-.52-.13-.85,0-.84,.32-1.49,.97-2.01,.64-.52,1.55-.71,2.58-.71,1.1,0,2,.26,2.64,.78,1.03,.58,1.35,1.3,1.35,2.28Zm-15.16-2.73v1.43c.77-1.17,1.81-1.69,3.16-1.69,1.1,0,1.87,.26,2.39,.84,.52,.59,.71,1.43,.71,2.54v6.24h-1.55v-5.53h0c0-.46,0-.84-.06-1.1,0-.26-.06-.52-.19-.85-.13-.32-.32-.52-.65-.65-.32-.13-.64-.19-1.1-.19-1.74,0-2.64,1.11-2.64,3.38v4.94h-1.55v-9.36h1.48Zm-4.97,4.48c-.06,.03-.11,.07-.16,.1-.05,.03-.1,.06-.16,.1-.13,.07-.26,.13-.45,.13-.19,.06-.32,.06-.39,.06-.02,0-.05,0-.09,.02-.08,.02-.19,.05-.36,.05-.26,0-.39,.07-.39,.07-.14,.02-.26,.04-.36,.05-.18,.02-.31,.04-.35,.08-.08,0-.18,.02-.33,.06-.09,.02-.19,.05-.32,.07-.26,.05-.44,.15-.57,.22-.03,.02-.05,.03-.08,.04-.13,.13-.26,.26-.39,.52-.13,.2-.19,.45-.19,.71,0,.46,.19,.85,.52,1.17,.32,.26,.77,.39,1.35,.39,.71,0,1.42-.19,2-.65,.58-.46,.84-.97,.84-1.56v-1.62h-.13Zm2.45,3.64v1.17c-.32,.13-.65,.19-1.03,.19-.9,0-1.35-.46-1.35-1.37-.9,.98-2,1.5-3.35,1.5-.9,0-1.61-.26-2.19-.71-.52-.46-.77-1.11-.77-1.95,0-1.69,1.1-2.67,3.29-2.93,.05,0,.13-.01,.22-.02,.12-.02,.28-.04,.43-.04,1.03-.13,1.68-.26,1.93-.39,.26-.19,.39-.52,.39-.97,0-1.04-.71-1.56-2.13-1.56-.71,0-1.29,.13-1.61,.46-.39,.26-.58,.78-.64,1.43h-1.55c0-.98,.39-1.82,1.1-2.34,.71-.58,1.61-.84,2.84-.84,1.29,0,2.26,.32,2.9,.91,.19,.19,.39,.46,.45,.78,.06,.33,.13,.59,.19,.78v.91c0,.46,0,1.17-.06,2.08,0,.53-.02,1-.04,1.38h0c-.01,.27-.02,.51-.02,.7,0,.33,.07,.59,.13,.72,.07,.13,.26,.19,.52,.19,.13,0,.26,0,.39-.07Zm-9.03-8.32v1.62h-.39c-.52,0-.9,.07-1.29,.26-.39,.13-.65,.33-.84,.59-.19,.26-.39,.52-.52,.91-.13,.39-.19,.71-.26,1.1-.07,.39-.07,.78-.07,1.23h0v3.97h-1.55v-9.49h1.48v2.01c.58-1.5,1.74-2.21,3.42-2.21Zm-4-3.38v1.5h-4.32v11.44h-1.68v-11.44h-4.32v-1.5h10.32Zm-20.25,4.61c-.9,0-1.55,.33-2.06,.98-.52,.65-.77,1.49-.77,2.6,0,1.17,.26,2.08,.77,2.73,.52,.65,1.23,.97,2.13,.97s1.61-.32,2.06-.97c.52-.65,.77-1.56,.77-2.73,0-1.04-.26-1.89-.71-2.6-.45-.59-1.16-.98-2.19-.98Zm4.39-4.55v12.87h-1.42v-1.36c-.58,1.1-1.61,1.62-3.1,1.62-1.36,0-2.39-.46-3.16-1.3-.77-.91-1.16-2.08-1.16-3.64,0-1.43,.39-2.6,1.1-3.51,.71-.98,1.81-1.43,3.16-1.43s2.32,.52,3.03,1.56v-4.81h1.55Zm-8.84,3.31v1.62h-.39c-.52,0-.9,.07-1.29,.26-.39,.13-.65,.33-.84,.59-.19,.26-.39,.52-.52,.91-.13,.39-.19,.71-.26,1.1-.07,.39-.07,.78-.07,1.24v3.96h-1.55v-9.49h1.48v2.01c.58-1.5,1.74-2.21,3.42-2.21Zm-8.71,2.21c-.52-.65-1.22-.98-2.13-.98s-1.61,.33-2.13,.98c-.52,.65-.77,1.56-.77,2.66,0,1.17,.26,2.08,.77,2.73,.52,.65,1.29,.97,2.19,.97s1.61-.32,2.13-.97c.52-.65,.77-1.56,.77-2.73-.07-1.1-.32-2.01-.84-2.66Zm-5.42-.98c.84-.91,1.94-1.36,3.35-1.36s2.52,.46,3.29,1.3c.77,.85,1.16,2.08,1.16,3.64s-.39,2.79-1.16,3.7c-.77,.91-1.87,1.3-3.29,1.3s-2.51-.46-3.35-1.3c-.84-.84-1.23-2.08-1.23-3.64s.39-2.73,1.23-3.64Zm-13.22-4.61h1.87l6.77,10.53v-10.53h1.61v12.93h-1.93l-6.77-10.4v10.4h-1.61v-12.93h.06Zm100.74,2.34s0-.04,.01-.06v.06h-.01Zm-.37,.78c.18-.24,.31-.48,.37-.78h-.57c-.06,.2-.13,.33-.19,.39-.07,.06-.19,.13-.39,.13s-.39-.07-.52-.26c-.13-.13-.19-.39-.19-.71s.07-.52,.19-.72,.32-.26,.52-.26c.13,0,.26,0,.39,.13,.06,.07,.19,.19,.19,.39h.65c0-.32-.13-.65-.39-.85-.26-.19-.52-.32-.9-.32-.45,0-.77,.13-1.03,.45-.26,.33-.39,.72-.39,1.17s.13,.78,.39,1.1c.26,.33,.58,.46,1.03,.46,.32,0,.58-.13,.84-.32Zm-.97-3.44c.58,0,1.1,.19,1.55,.65,.45,.39,.65,.98,.65,1.56s-.19,1.1-.65,1.56c-.45,.46-.97,.65-1.55,.65s-1.1-.19-1.55-.65c-.45-.46-.65-.97-.65-1.56s.19-1.11,.65-1.56c.45-.45,.97-.65,1.55-.65Zm0-.46c-.71,0-1.35,.26-1.87,.78s-.77,1.11-.77,1.89c0,.71,.26,1.36,.77,1.88,.52,.52,1.16,.78,1.87,.78s1.36-.26,1.87-.78c.52-.52,.77-1.17,.77-1.88s-.26-1.37-.77-1.89c-.52-.52-1.16-.78-1.87-.78Z"/>
</svg>