<?xml version="1.0" encoding="UTF-8"?>
<svg id="Layer_1" data-name="Layer 1" xmlns="http://www.w3.org/2000/svg" viewBox="0 0 300 172">
  <defs>
    <style>
      .cls-1 {
        fill: #101216;
      }
    </style>
  </defs>
  <path class="cls-1" d="M103.04,86.36l-1.19-.37c-.22-.07-.37-.15-.3-.22,0-.07,.22-.15,.52-.15h5.14c.3,0,.45,.07,.45,.15s-.08,.15-.22,.22l-1.04,.37c-.45,.15-.67,.45-.67,.9,0,1.35,.08,2.69,.22,4.11-2.01,1.2-4.25,1.72-6.71,1.72-1.71,0-3.28-.3-4.62-.97-2.68-1.34-4.17-3.74-4.55-7.02,0-.37-.07-.75-.07-1.12,0-2.69,.89-4.86,2.68-6.35,2.01-1.72,4.55-2.62,7.45-2.62,1.71,0,3.5,.3,5.44,.9l-.37,4.18c0,.22-.07,.37-.22,.3-.08,0-.15-.15-.22-.37l-.45-2.09c-.07-.3-.15-.52-.22-.67-.07-.15-.37-.3-.67-.45-.89-.37-1.94-.6-3.21-.6-1.94,0-3.65,.45-5.07,1.42-2.01,1.35-3.06,3.51-2.98,6.5,0,1.35,.3,2.62,.75,3.66,.6,1.42,1.49,2.39,2.61,3.06,1.34,.75,2.61,1.05,3.88,1.05,1.12,0,2.24-.3,3.43-.82,.67-.37,1.04-.82,1.04-1.49,.07-1.35-.07-2.32-.22-2.84-.15-.15-.3-.22-.6-.37Zm6.63-8.29c.07,1.49,.07,3.51,.07,6.05s0,4.48-.07,6.05c0,.67,0,1.05-.07,1.2-.07,.3-.15,.45-.37,.52l-1.34,.37c-.22,0-.3,.07-.3,.15s.15,.15,.45,.15h10.21l.15-3.66c0-.07-.07-.15-.15-.15s-.22,.07-.22,.3l-.75,1.72c-.07,.22-.22,.37-.37,.37-.15,.07-.37,.07-.82,.07h-3.95c-.37,0-.52-.22-.52-.6-.07-1.94-.07-4.11-.07-6.58s0-4.56,.07-6.05c0-.67,0-1.05,.08-1.12,.07-.3,.22-.45,.45-.52l1.34-.37c.3-.07,.37-.15,.37-.22s-.15-.15-.45-.15h-5.37c-.3,0-.45,.07-.45,.15s.15,.15,.37,.22l1.34,.37c.22,.07,.37,.22,.37,.52v1.2Zm21.17,10.84c0-.07-.07-.15-.15-.15s-.22,.07-.3,.3c-.37,.97-.52,1.49-.67,1.72-.07,.22-.22,.37-.37,.37-.15,.07-.45,.07-.82,.07h-5.07c-.37,0-.52-.22-.52-.6l-.08-6.28h4.55c.45,0,.67,.15,.82,.52,.15,.6,.3,1.12,.45,1.57,.07,.22,.15,.3,.22,.3s.15-.22,.15-.52v-4.41c0-.07-.07-.15-.15-.15s-.15,.07-.22,.15c-.08,.37-.22,.6-.3,.82-.15,.3-.22,.45-.37,.45-.08,.07-.3,.07-.6,.07h-4.55l.08-5.9c0-.3,0-.45,.07-.52h3.73c1.19,0,1.94,.07,2.09,.22,.22,.15,.45,.75,.89,1.79,.07,.22,.15,.37,.22,.37s.15-.15,.15-.45v-3.29c-1.12,.07-2.53,.15-4.1,.22-1.72,0-3.95,.07-6.63,.07-.3,0-.45,.07-.45,.15s.15,.15,.37,.22l1.34,.37c.22,.07,.37,.22,.37,.52,0,.07,.08,.45,.08,1.12,.07,1.57,.07,3.59,.07,6.05s0,4.41-.07,6.05c0,.67,0,1.05-.08,1.2-.07,.3-.15,.45-.37,.52l-1.34,.37c-.3,.07-.37,.15-.37,.22s.15,.15,.45,.15h11.33l.15-3.74Zm18.11,3.96c-.07-1.27-.15-2.17-.15-2.76-.07-1.57-.07-3.59-.07-6.05s0-4.41,.07-6.05c0-.67,0-1.05,.08-1.12,.07-.3,.15-.45,.37-.52l1.34-.37c.22-.07,.37-.15,.37-.22s-.15-.15-.45-.15h-4.77c-.3,0-.45,.07-.45,.15s.15,.15,.37,.22l1.34,.37c.22,.07,.37,.22,.45,.52,0,.07,.07,.45,.07,1.12,.08,1.64,.08,3.66,.08,6.05s0,4.26-.08,5.38l-9.61-10.16c-1.79-2.02-2.98-3.44-3.5-4.11h-1.19c.07,1.35,.15,2.32,.15,2.91,.07,1.64,.07,3.66,.07,6.05s0,4.48-.07,6.05c0,.67,0,1.05-.07,1.12-.07,.3-.15,.45-.37,.52l-1.34,.37c-.3,.07-.37,.15-.37,.22s.15,.15,.45,.15h4.77c.3,0,.45-.07,.45-.15s-.15-.15-.37-.22l-1.34-.37c-.22-.07-.37-.22-.37-.52,0-.15-.07-.52-.07-1.12-.07-1.57-.07-3.59-.07-6.05s0-4.18,.07-5.53c4.25,4.56,7.53,8.07,9.84,10.54,1.56,1.79,2.61,3.06,3.2,3.74h1.19Zm4.85-1.57c1.71,1.27,3.73,1.87,6.11,1.87,1.71,0,3.58-.37,5.59-1.12l.67-4.18c0-.07,0-.15-.07-.15s-.22,.15-.37,.52c-.22,.52-.3,.82-.37,.9-.3,.67-.67,1.12-.97,1.42-1.04,.97-2.53,1.42-4.7,1.42-.75,0-1.42-.07-1.94-.22-2.76-.75-4.55-2.54-5.29-5.38,0-.67-.15-1.35-.15-2.17,0-2.39,.67-4.26,1.94-5.68,1.49-1.57,3.5-2.32,6.11-2.32,.67,0,1.34,.07,1.94,.22,.75,.22,1.34,.52,1.71,1.12,.3,.37,.52,1.05,.75,1.94,.07,.37,.22,.52,.3,.52s.15-.15,.15-.37v-3.89c-1.49-.45-3.06-.67-4.62-.67-2.31,0-4.25,.52-5.89,1.49-1.42,.9-2.53,2.02-3.35,3.36-.67,1.2-1.04,2.47-1.12,3.89-.15,3.06,1.04,5.6,3.58,7.47Zm19.9-14.65c-2.53,.6-4.17,2.24-4.99,4.86-.22,.67-.3,1.49-.3,2.24,0,2.24,.74,4.18,2.16,5.68,1.42,1.49,3.21,2.24,5.44,2.24,.6,0,1.19-.07,1.71-.22,2.68-.67,4.4-2.32,5.14-4.93,.22-.67,.3-1.34,.3-2.09,0-1.12-.15-2.17-.52-3.14-.37-1.12-.97-2.02-1.71-2.69-1.56-1.49-3.35-2.24-5.44-2.24-.6,.07-1.19,.15-1.79,.3Zm-2.46-.45c.97-.45,2.16-.82,3.5-1.05,.52-.07,.97-.07,1.49-.07,2.91,0,5.22,1.05,7.01,3.21,1.27,1.57,1.86,3.44,1.86,5.83,0,.82-.08,1.64-.3,2.39-.37,1.49-1.19,2.84-2.38,3.89-1.12,1.05-2.46,1.79-3.95,2.24-1.19,.37-2.24,.52-3.28,.52-2.16,0-4.17-.75-5.89-2.24-1.04-.9-1.79-2.02-2.31-3.44-.45-1.2-.67-2.39-.67-3.59,0-.3,0-.67,.07-.97,.37-3.06,2.01-5.31,4.84-6.73Zm17.96,7.85c1.12,0,2.01-.15,2.68-.52,1.27-.6,2.01-1.64,2.09-3.06,.08-1.35-.45-2.39-1.71-3.14-.67-.37-1.42-.6-2.39-.6-.37,0-.67,.07-.97,.15-.3,.15-.45,.3-.45,.6v6.65c.3-.07,.52-.07,.75-.07Zm-4.84-8.29c0-.07,.15-.15,.45-.15l4.77-.07c1.49,0,2.53,.07,3.21,.22,1.12,.3,2.01,1.05,2.68,2.17,.37,.6,.52,1.35,.52,2.17,0,.9-.22,1.72-.67,2.47-.67,1.12-2.01,1.94-3.8,2.39l5.14,5.83c1.04,1.05,2.98,2.84,4.55,3.59,.15,.07,1.42,.6,2.31,.75,.82,.15,3.21,.22,3.06,.3-2.09,1.27-5.22,.37-6.71-.3-1.04-.45-4.17-3.06-5.81-4.78l-4.92-5.16h-.6v5.01c0,.6,0,.97,.07,1.12,.07,.3,.22,.45,.45,.52l1.34,.37c.3,.07,.37,.15,.37,.22s-.15,.15-.45,.15h-5.37c-.3,0-.45-.07-.45-.15s.15-.15,.37-.22l1.34-.37c.22-.07,.37-.22,.37-.52,0-.07,.08-.52,.08-1.12,.07-1.57,.07-3.59,.07-6.05s0-4.41-.07-6.05c0-.67,0-1.05-.08-1.12-.07-.3-.15-.45-.37-.52l-1.34-.37c-.37-.07-.52-.15-.52-.3Zm26.46,13.15c0-.07-.07-.15-.15-.15s-.22,.07-.3,.3c-.37,.97-.52,1.49-.67,1.72-.07,.22-.22,.37-.37,.37-.15,.07-.45,.07-.82,.07h-5.07c-.37,0-.52-.22-.52-.6l-.07-6.28h4.55c.45,0,.67,.15,.82,.52,.15,.6,.3,1.12,.45,1.57,.07,.22,.15,.3,.22,.3s.15-.22,.15-.52v-4.41c0-.07-.07-.15-.15-.15s-.15,.07-.22,.15c-.08,.37-.22,.6-.3,.82-.15,.3-.22,.45-.37,.45-.07,.07-.3,.07-.6,.07h-4.55l.07-5.9c0-.3,0-.45,.07-.52,.07-.07,.22-.07,.45-.07h3.2c1.19,0,1.94,.07,2.09,.22,.22,.15,.45,.75,.9,1.79,.07,.22,.15,.37,.22,.37s.15-.15,.15-.45v-3.21c-1.12,.07-2.53,.15-4.1,.22-1.71,0-3.95,.07-6.63,.07-.3,0-.45,.07-.45,.15s.15,.15,.37,.22l1.34,.37c.22,.07,.37,.22,.37,.52,0,.07,.08,.45,.08,1.12,.07,1.57,.07,3.59,.07,6.05s0,4.41-.07,6.05c0,.67,0,1.05-.08,1.2-.07,.3-.15,.45-.37,.52l-1.34,.37c-.3,.07-.37,.15-.37,.22s.15,.15,.45,.15h11.33l.22-3.74Z"/>
</svg>