<?xml version="1.0" encoding="UTF-8"?>
<svg id="Layer_1" data-name="Layer 1" xmlns="http://www.w3.org/2000/svg" viewBox="0 0 300 172">
  <defs>
    <style>
      .cls-1 {
        fill: #101216;
        fill-rule: evenodd;
      }
    </style>
  </defs>
  <path class="cls-1" d="M76.92,97.79c-.39,.41-.78,.82-1.17,1.23,6,6.61,16.18,8.35,24.18,3.65,8-4.72,11.87-13.01,8.91-22.51-2.85-9.09-11.66-14.67-21.16-13.49-9.24,1.12-15.62,8.37-16.75,15.65,.13-.03,.27-.05,.38-.08,.31-.1,.63-.21,.94-.32,.74-.25,1.48-.5,2.23-.72,3.77-1.17,7.59-2.13,11.5-2.72,2.42-.35,4.82-.67,7.24-.96,1.32-.16,2.67-.24,3.99-.27,1.13-.03,2.1,.51,3.1,1.31-.51,.04-.97,.06-1.42,.08-.55,.03-1.07,.06-1.59,.1-.66,.05-1.32,.11-1.98,.16-1.93,.15-3.88,.3-5.8,.54-2.8,.35-5.6,.75-8.32,1.36-2.32,.53-4.6,1.17-6.88,1.81-1.06,.3-2.12,.6-3.19,.88-.54,.13-.59,.45-.43,.96,.39-.13,.78-.25,1.16-.38,.57-.18,1.13-.37,1.69-.56,5.82-1.95,11.79-3.09,17.91-3.63,2.08-.18,4.15-.29,6.24-.39,1.02-.05,2.05-.11,3.08-.17,.22-.03,.51-.03,.67,.08,.56,.39,1.08,.79,1.61,1.2,.16,.12,.32,.25,.49,.37-.3,.13-.54,.13-.78,.13-6-.05-11.96,.21-17.88,1.12-4.69,.72-9.26,1.84-13.73,3.36-.57,.19-.78,.45-.59,1.04,.08-.02,.15-.04,.21-.06,.05-.02,.09-.03,.14-.04,.64-.21,1.28-.44,1.92-.66,1.36-.47,2.71-.94,4.09-1.34,3.77-1.07,7.65-1.73,11.58-2.03,3.29-.24,6.54-.43,9.83-.61,1.48-.08,2.99-.13,4.5-.19,.11,0,.22-.01,.34-.02,.47-.03,.96-.07,1.33,.1,.54,.26,1,.64,1.47,1.03,.16,.14,.33,.28,.5,.41-.02,.02-.03,.04-.04,.05-.01,.02-.02,.03-.03,.03-.35,.03-.73,.03-1.08,.03-.67,0-1.35-.01-2.02-.02-6.46-.06-12.92-.12-19.36,.87-4.42,.69-8.7,1.84-12.76,3.73-.43,.19-.59,.43-.32,.88,3.18-1.97,6.68-3.01,10.34-3.44,3.19-.41,6.37-.64,9.58-.88,.37-.03,.74-.05,1.11-.08,1.48-.12,2.94-.15,4.41-.18,.49,0,.97-.02,1.46-.03-1.02,.16-2.05,.29-3.08,.41-1.03,.13-2.06,.25-3.08,.41-4.63,.69-9.18,1.73-13.38,3.95-2.26,1.17-4.28,2.64-6.22,4.27,.09,.19,.18,.37,.27,.55,.18,.37,.36,.73,.54,1.13,.1-.1,.17-.16,.22-.2,.03-.02,.05-.04,.07-.06,2.69-2.93,5.95-5.01,9.61-6.56,5.39-2.29,11.09-3.23,16.88-3.63,1.88-.14,3.76-.19,5.63-.24,.63-.02,1.25-.03,1.88-.05,.45-.02,.9-.01,1.35,0,.22,0,.45,0,.67,0v.19l-.73,.08c-5.3,.69-10.58,1.6-15.67,3.25-4.74,1.55-9.18,3.71-12.84,7.17-1.01,.93-1.96,1.93-2.92,2.93Zm123.8-12.63v2h2.73v1.51c-.36,.28-.79,.52-1.3,.72-.5,.19-1,.29-1.5,.29-1.01,0-1.83-.35-2.45-1.05-.62-.71-.93-1.77-.93-3.18,0-1.31,.31-2.29,.92-2.96,.62-.66,1.45-1,2.49-1,.69,0,1.26,.17,1.72,.51,.46,.34,.78,.79,.94,1.38l2.37-.45c-.24-1.09-.77-1.95-1.59-2.56-.82-.62-1.97-.93-3.43-.93-1.13,0-2.07,.2-2.83,.59-.99,.51-1.75,1.25-2.26,2.21-.51,.96-.77,2.06-.77,3.3,0,1.14,.23,2.2,.69,3.17,.46,.97,1.15,1.71,2.07,2.24,.92,.52,2,.78,3.23,.78,.97,0,1.93-.18,2.88-.55,.95-.37,1.68-.8,2.17-1.29v-4.73h-5.14Zm-79.74-5.51v11.88h2.38v-3.59l1.93-1.99,3.25,5.58h3.08l-4.69-7.26,4.45-4.63h-3.21l-4.82,5.28v-5.28h-2.38Zm14.55,2.01v9.87h2.38v-9.87h3.5v-2.01h-9.38v2.01h3.5Zm6.4,9.87v-2.16l6.2-7.71h-5.5v-2.01h8.64v1.86l-6.47,8.02h6.72v2h-9.59Zm15.72-11.88v11.88h2.38v-5.05h4.93v-2.01h-4.93v-2.81h5.71v-2.01h-8.09Zm10.08,11.88v-11.88h5.02c1.26,0,2.18,.11,2.75,.32,.57,.21,1.03,.59,1.38,1.14,.34,.55,.52,1.17,.52,1.87,0,.89-.26,1.63-.78,2.21-.52,.58-1.3,.94-2.34,1.09,.52,.3,.94,.64,1.27,1,.34,.36,.79,1.01,1.36,1.93l1.44,2.32h-2.85l-1.72-2.59c-.61-.92-1.03-1.51-1.26-1.74-.23-.24-.46-.41-.72-.49-.25-.09-.65-.14-1.2-.14h-.48v4.96h-2.38Zm2.38-6.86h1.76c1.14,0,1.86-.05,2.14-.15,.28-.1,.51-.26,.67-.5s.24-.53,.24-.89c0-.4-.11-.72-.32-.96-.21-.25-.51-.41-.89-.47-.19-.03-.77-.04-1.74-.04h-1.86v3.02Zm9.53-5.03v11.88h8.98v-2h-6.6v-3.23h5.93v-2h-5.93v-2.63h6.37v-2.01h-8.76Zm10.93,11.88v-11.88h2.38v11.88h-2.38Zm17.51,0v-11.88h2.38v4.68h4.67v-4.68h2.38v11.88h-2.38v-5.2h-4.67v5.2h-2.38Zm14.57-9.87v9.87h2.38v-9.87h3.5v-2.01h-9.38v2.01h3.5Z"/>
</svg>