<?xml version="1.0" encoding="UTF-8"?>
<svg id="Layer_1" data-name="Layer 1" xmlns="http://www.w3.org/2000/svg" viewBox="0 0 300 172">
  <defs>
    <style>
      .cls-1 {
        fill: #101216;
        fill-rule: evenodd;
      }
    </style>
  </defs>
  <path class="cls-1" d="M102.51,65.09l-13.27,13.31,13.27,13.31h13.27s-13.27-13.31-13.27-13.31l13.27-13.31h-13.27Zm-14.48,14.98l13.27,13.31-13.27,13.31h-13.27l13.27-13.31-13.27-13.31h13.27Zm44.07,6.28h-2.44v-6.48l-1.77,4.18h-1.67l-1.77-4.18v6.48h-2.31v-9.78h2.82l2.16,4.82,2.15-4.82h2.82v9.78Zm4.17,0h-2.29v-7.37h2.29v7.37Zm.07-8.42h-2.43v-1.79h2.43v1.79Zm8.37,8.42h-2.29v-.77c-.15,.12-.32,.26-.51,.39-.19,.14-.36,.24-.5,.32-.18,.09-.36,.15-.54,.19-.18,.04-.39,.07-.64,.07-.84,0-1.51-.35-2-1.04-.49-.7-.74-1.62-.74-2.79,0-.64,.08-1.2,.25-1.67,.17-.47,.4-.88,.69-1.24,.27-.32,.59-.57,.97-.76,.38-.19,.78-.28,1.21-.28,.38,0,.7,.04,.95,.12,.25,.08,.54,.21,.86,.38v-3.15h2.29v10.22Zm-2.29-2.03v-3.64c-.11-.06-.26-.1-.45-.14-.18-.04-.34-.06-.47-.06-.55,0-.97,.19-1.25,.58-.28,.39-.42,.93-.42,1.62,0,.73,.11,1.26,.33,1.58,.22,.32,.58,.49,1.08,.49,.2,0,.4-.04,.61-.12,.21-.08,.39-.19,.57-.32Zm10.72,2.03h-2.29v-.77c-.15,.12-.32,.26-.51,.39-.19,.14-.36,.24-.5,.32-.18,.09-.36,.15-.54,.19-.18,.04-.39,.07-.64,.07-.84,0-1.51-.35-2-1.04-.49-.7-.74-1.62-.74-2.79,0-.64,.08-1.2,.25-1.67,.16-.47,.39-.88,.69-1.24,.27-.32,.59-.57,.97-.76,.38-.19,.78-.28,1.21-.28,.39,0,.7,.04,.95,.12,.25,.08,.54,.21,.86,.38v-3.15h2.29v10.22Zm-2.29-2.03v-3.64c-.11-.06-.26-.1-.45-.14-.18-.04-.34-.06-.47-.06-.55,0-.97,.19-1.25,.58-.28,.39-.42,.93-.42,1.62,0,.73,.11,1.26,.33,1.58,.22,.32,.58,.49,1.08,.49,.2,0,.4-.04,.61-.12,.21-.08,.39-.19,.57-.32Zm6.33,2.03h-2.29v-10.22h2.29v10.22Zm5.52,.2c-1.39,0-2.45-.33-3.2-1-.74-.67-1.11-1.61-1.11-2.84s.35-2.16,1.04-2.88c.69-.72,1.66-1.08,2.9-1.08,1.13,0,1.98,.31,2.54,.91,.57,.61,.85,1.48,.85,2.62v.83h-5.04c.02,.34,.09,.63,.22,.86,.12,.23,.28,.41,.49,.55,.2,.13,.43,.23,.69,.29,.26,.06,.55,.09,.86,.09,.27,0,.53-.03,.79-.09,.26-.06,.5-.14,.71-.24,.19-.09,.36-.18,.52-.27,.16-.1,.29-.18,.39-.26h.24v1.9c-.19,.07-.36,.14-.51,.21-.16,.07-.37,.13-.64,.19-.25,.07-.51,.12-.77,.15-.26,.04-.59,.06-.97,.06Zm.77-4.83c-.01-.49-.13-.87-.34-1.12-.21-.26-.54-.39-.98-.39s-.8,.13-1.05,.41c-.25,.27-.39,.64-.42,1.1h2.79Zm11.68,4.81c-1.46,0-2.62-.44-3.48-1.33-.86-.89-1.29-2.13-1.29-3.74s.43-2.79,1.29-3.71c.86-.92,2.02-1.38,3.48-1.38,.39,0,.74,.02,1.04,.07,.31,.05,.6,.11,.89,.18,.22,.07,.46,.16,.73,.27,.26,.11,.47,.21,.63,.29v2.33h-.25c-.12-.11-.27-.23-.44-.37-.18-.15-.38-.29-.61-.43-.23-.14-.47-.26-.75-.36-.27-.1-.56-.15-.85-.15-.35,0-.68,.06-.97,.17-.29,.11-.57,.3-.84,.58-.24,.25-.44,.59-.6,1.01-.15,.42-.23,.92-.23,1.5,0,.61,.08,1.12,.24,1.53,.16,.41,.37,.75,.64,1,.25,.24,.53,.42,.85,.53,.31,.11,.62,.16,.93,.16,.32,0,.63-.05,.92-.16,.29-.1,.54-.22,.74-.35,.22-.13,.41-.27,.58-.41,.17-.14,.31-.26,.43-.37h.22v2.29c-.12,.05-.25,.11-.39,.18-.07,.03-.15,.07-.23,.11-.23,.11-.48,.2-.72,.27-.31,.09-.59,.16-.86,.21-.26,.05-.63,.07-1.1,.07Zm11.67-3.87c0,1.21-.33,2.17-.99,2.86-.66,.7-1.6,1.05-2.81,1.05s-2.14-.35-2.8-1.05c-.67-.7-1-1.65-1-2.86s.33-2.18,1-2.88c.67-.69,1.6-1.04,2.8-1.04s2.14,.35,2.8,1.05c.66,.7,.99,1.65,.99,2.87Zm-2.34,.01c0-.43-.04-.8-.11-1.09-.07-.29-.17-.52-.3-.7-.14-.18-.29-.31-.46-.38-.17-.07-.37-.11-.58-.11-.21,0-.39,.03-.56,.09-.17,.06-.32,.18-.46,.36-.13,.17-.24,.4-.31,.7-.08,.3-.12,.67-.12,1.12s.04,.81,.11,1.09c.07,.28,.17,.5,.29,.66,.12,.17,.27,.29,.46,.37,.18,.08,.39,.12,.61,.12,.18,0,.37-.04,.56-.12,.19-.08,.34-.2,.46-.35,.14-.19,.24-.41,.31-.68,.07-.26,.11-.63,.11-1.1Zm8.5-1.52h-.19c-.09-.03-.22-.06-.38-.07-.17-.02-.35-.02-.55-.02-.24,0-.49,.04-.76,.11-.27,.07-.52,.15-.77,.25v4.93h-2.29v-7.37h2.29v1.06c.11-.1,.25-.22,.44-.36,.18-.15,.35-.26,.51-.35,.17-.1,.36-.19,.58-.26,.22-.07,.43-.11,.63-.11,.07,0,.16,0,.25,0,.09,0,.18,.01,.25,.02v2.18Zm5.81,0h-.19c-.09-.03-.21-.06-.38-.07-.16-.02-.35-.02-.55-.02-.24,0-.49,.04-.76,.11-.26,.07-.52,.15-.77,.25v4.93h-2.29v-7.37h2.29v1.06c.1-.1,.25-.22,.44-.36,.19-.15,.36-.26,.51-.35,.17-.1,.36-.19,.58-.26,.22-.07,.43-.11,.63-.11,.07,0,.16,0,.25,0,.09,0,.18,.01,.25,.02v2.18Zm3.16,5.19h-2.29v-7.37h2.29v7.37Zm.07-8.42h-2.43v-1.79h2.43v1.79Zm8.37,8.42h-2.29v-.77c-.15,.12-.32,.26-.51,.39-.19,.14-.36,.24-.5,.32-.18,.09-.36,.15-.54,.19-.18,.04-.39,.07-.64,.07-.84,0-1.51-.35-2-1.04-.49-.7-.74-1.62-.74-2.79,0-.64,.08-1.2,.25-1.67,.17-.47,.4-.88,.69-1.24,.27-.32,.59-.57,.97-.76,.38-.19,.78-.28,1.21-.28,.38,0,.7,.04,.95,.12,.25,.08,.54,.21,.86,.38v-3.15h2.29v10.22Zm-2.29-2.03v-3.64c-.11-.06-.26-.1-.45-.14-.19-.04-.34-.06-.47-.06-.55,0-.97,.19-1.25,.58-.28,.39-.42,.93-.42,1.62,0,.73,.11,1.26,.33,1.58,.22,.32,.58,.49,1.08,.49,.2,0,.4-.04,.61-.12,.21-.08,.39-.19,.57-.32Zm11.1-1.65c0,1.21-.33,2.17-.99,2.86-.66,.7-1.6,1.05-2.81,1.05s-2.13-.35-2.8-1.05c-.67-.7-1-1.65-1-2.86s.33-2.18,1-2.88c.67-.69,1.6-1.04,2.8-1.04s2.14,.35,2.8,1.05c.66,.7,1,1.65,1,2.87Zm-2.35,.01c0-.43-.04-.8-.11-1.09-.07-.29-.17-.52-.3-.7-.13-.18-.29-.31-.46-.38-.17-.07-.37-.11-.59-.11-.21,0-.39,.03-.56,.09-.17,.06-.32,.18-.46,.36-.13,.17-.24,.4-.31,.7-.08,.3-.12,.67-.12,1.12s.04,.81,.11,1.09c.07,.28,.17,.5,.29,.66,.12,.17,.27,.29,.46,.37,.18,.08,.39,.12,.61,.12,.18,0,.37-.04,.56-.12,.19-.08,.34-.2,.46-.35,.14-.19,.24-.41,.31-.68,.07-.26,.1-.63,.1-1.1Zm8.5-1.52h-.19c-.09-.03-.21-.06-.38-.07-.17-.02-.35-.02-.55-.02-.24,0-.49,.04-.76,.11-.27,.07-.52,.15-.77,.25v4.93h-2.29v-7.37h2.29v1.06c.1-.1,.25-.22,.44-.36,.19-.15,.36-.26,.51-.35,.17-.1,.36-.19,.58-.26,.22-.07,.43-.11,.63-.11,.07,0,.15,0,.25,0,.09,0,.18,.01,.25,.02v2.18Zm-57.42,11.88h.07v-.73s-.03,0-.04,0c-.01,0-.03,0-.04,0-.03,0-.06,0-.09,0-.07,0-.14,.01-.21,.04-.08,.02-.14,.05-.2,.09-.05,.03-.11,.07-.17,.12-.07,.05-.11,.09-.15,.12v-.35h-.78v2.46h.78v-1.64c.08-.03,.17-.06,.26-.08,.09-.02,.18-.03,.26-.03,.07,0,.13,0,.19,0,.06,0,.1,.01,.13,.02Zm-44.79-.91v2.64h.84v-2.64h.98v-.62h-2.8v.62h.98Zm3.73,.91h.06v-.73s-.05,0-.08,0c-.03,0-.06,0-.08,0-.07,0-.14,.01-.21,.04-.08,.02-.14,.05-.2,.09-.05,.03-.11,.07-.17,.12-.06,.05-.11,.09-.15,.12v-.35h-.78v2.46h.78v-1.64c.09-.03,.17-.06,.26-.08,.09-.02,.18-.03,.26-.03,.07,0,.13,0,.19,0,.06,0,.1,.01,.13,.02Zm1.74,.57v.51c-.06,.06-.12,.1-.19,.13-.07,.03-.14,.05-.21,.05-.12,0-.21-.02-.28-.06-.06-.04-.09-.12-.09-.24,0-.08,.02-.14,.06-.19,.04-.05,.09-.08,.16-.11,.08-.03,.16-.05,.24-.06,.08,0,.19-.02,.32-.03Zm-.06,.95s.04-.03,.06-.05v.26h.78v-1.67c0-.29-.1-.5-.3-.65-.2-.14-.51-.21-.94-.21-.17,0-.35,.02-.52,.05-.17,.03-.3,.06-.37,.08v.6h.07c.12-.05,.24-.09,.36-.13,.12-.03,.23-.05,.32-.05,.2,0,.35,.03,.46,.08,.1,.05,.15,.15,.15,.28h0c-.23,.03-.44,.05-.63,.07-.19,.03-.36,.07-.5,.14-.14,.07-.25,.16-.32,.27-.07,.11-.11,.26-.11,.44,0,.22,.07,.41,.22,.55,.15,.15,.33,.22,.55,.22,.12,0,.21,0,.28-.03,.07-.02,.13-.04,.2-.08,.07-.04,.13-.07,.17-.1,.03-.02,.05-.04,.08-.07Zm2.98,.21h.78v-1.6c0-.3-.07-.53-.2-.69-.13-.16-.33-.24-.59-.24-.15,0-.28,.03-.4,.09-.12,.06-.25,.14-.37,.25v-.27h-.78v2.46h.78v-1.74c.07-.05,.15-.09,.21-.11,.07-.02,.13-.04,.2-.04,.09,0,.15,.01,.2,.04,.05,.02,.09,.06,.12,.12,.02,.05,.04,.12,.05,.22,0,.1,.01,.2,.01,.3v1.22Zm1.6,0c.16,.04,.34,.06,.52,.06,.2,0,.38-.02,.52-.06,.14-.04,.27-.1,.38-.18,.1-.07,.18-.16,.23-.26,.05-.1,.08-.21,.08-.33,0-.18-.05-.33-.14-.44-.09-.11-.23-.19-.41-.25-.08-.03-.16-.05-.25-.06-.09-.02-.16-.03-.23-.05-.13-.03-.21-.06-.25-.09-.04-.03-.06-.07-.06-.13,0-.06,.04-.11,.12-.15,.08-.04,.17-.06,.29-.06,.09,0,.17,0,.25,.03,.08,.02,.15,.04,.22,.07,.06,.02,.11,.05,.17,.09,.06,.03,.1,.06,.13,.08h.06v-.62c-.1-.05-.23-.09-.37-.12-.15-.03-.31-.05-.48-.05-.18,0-.35,.02-.5,.07-.15,.04-.27,.1-.37,.18-.1,.07-.18,.16-.23,.26-.05,.1-.08,.2-.08,.31,0,.19,.05,.34,.15,.46,.1,.12,.25,.21,.44,.26,.07,.02,.15,.04,.24,.06,.09,.02,.17,.03,.22,.05,.11,.03,.19,.05,.23,.08,.04,.03,.06,.07,.06,.13,0,.07-.04,.13-.13,.16-.08,.03-.18,.05-.29,.05s-.21-.01-.3-.04c-.09-.02-.17-.05-.25-.09-.08-.04-.15-.07-.2-.1-.05-.03-.09-.06-.13-.09h-.07v.65c.11,.05,.24,.1,.41,.14Zm2.06-1.15h1.48v-.6h-1.48v.6Zm2.31,.76c.29,.3,.69,.44,1.18,.44,.16,0,.28,0,.37-.02,.09-.02,.19-.04,.29-.07,.08-.03,.17-.05,.25-.09,.08-.04,.15-.07,.21-.1v-.76h-.08s-.09,.08-.15,.12c-.06,.05-.12,.09-.2,.14-.07,.04-.15,.08-.25,.12-.1,.03-.2,.05-.32,.05-.1,0-.21-.02-.32-.05-.11-.04-.2-.1-.29-.18-.09-.08-.16-.2-.22-.33-.05-.14-.08-.31-.08-.51,0-.19,.03-.36,.08-.5,.05-.14,.12-.25,.2-.34,.09-.09,.19-.16,.29-.19,.1-.04,.21-.06,.33-.06,.1,0,.2,.02,.29,.05,.09,.03,.18,.07,.26,.12,.08,.05,.15,.09,.21,.14,.06,.05,.11,.09,.15,.12h.08v-.78c-.06-.03-.13-.06-.22-.1-.09-.04-.17-.07-.25-.09-.1-.03-.2-.05-.3-.06-.1-.01-.22-.02-.36-.02-.5,0-.89,.15-1.19,.46-.29,.31-.44,.72-.44,1.24s.15,.95,.44,1.25Zm4.13-.78v.51c-.06,.06-.12,.1-.19,.13-.07,.03-.14,.05-.21,.05-.12,0-.21-.02-.28-.06-.06-.04-.09-.12-.09-.24,0-.08,.02-.14,.06-.19,.04-.05,.09-.08,.16-.11,.08-.03,.16-.05,.24-.06,.08,0,.19-.02,.32-.03Zm-.14,1.01s.09-.07,.14-.12v.26h.78v-1.67c0-.29-.1-.5-.29-.65-.2-.14-.51-.21-.94-.21-.18,0-.35,.02-.52,.05-.17,.03-.3,.06-.37,.08v.6h.07c.12-.05,.24-.09,.36-.13,.12-.03,.23-.05,.32-.05,.2,0,.35,.03,.46,.08,.1,.05,.15,.15,.15,.28h0c-.22,.03-.43,.05-.63,.07-.2,.03-.36,.07-.51,.14-.14,.07-.24,.16-.32,.27-.07,.11-.11,.26-.11,.44,0,.22,.07,.41,.22,.55,.15,.15,.33,.22,.55,.22,.12,0,.21,0,.27-.03,.07-.02,.14-.04,.2-.08,.07-.04,.13-.07,.17-.1Zm1.74,.15c.16,.04,.34,.06,.52,.06,.2,0,.38-.02,.52-.06,.14-.04,.27-.1,.38-.18,.1-.07,.18-.16,.23-.26,.06-.1,.08-.21,.08-.33,0-.18-.05-.33-.14-.44-.09-.11-.23-.19-.41-.25-.08-.03-.16-.05-.25-.06-.09-.02-.16-.03-.23-.05-.13-.03-.21-.06-.25-.09-.04-.03-.06-.07-.06-.13,0-.06,.04-.11,.12-.15,.08-.04,.17-.06,.29-.06,.09,0,.17,0,.25,.03,.08,.02,.15,.04,.22,.07,.06,.02,.11,.05,.17,.09,.06,.03,.1,.06,.13,.08h.06v-.62c-.1-.05-.23-.09-.37-.12-.15-.03-.31-.05-.49-.05s-.35,.02-.5,.07c-.15,.04-.27,.1-.37,.18-.1,.07-.17,.16-.23,.26-.05,.1-.08,.2-.08,.31,0,.19,.05,.34,.15,.46,.1,.12,.25,.21,.44,.26,.07,.02,.15,.04,.24,.06,.09,.02,.17,.03,.22,.05,.11,.03,.19,.05,.23,.08,.04,.03,.06,.07,.06,.13,0,.07-.04,.13-.13,.16s-.18,.05-.29,.05-.21-.01-.3-.04c-.09-.02-.17-.05-.25-.09-.08-.04-.15-.07-.2-.1-.05-.03-.09-.06-.13-.09h-.06v.65c.11,.05,.24,.1,.41,.14Zm4.26-.32c.2-.24,.31-.56,.31-.95s-.08-.7-.24-.92c-.16-.23-.38-.34-.68-.34-.16,0-.29,.03-.41,.09-.12,.06-.24,.14-.35,.23v-.26h-.78v3.36h.78v-1.02c.1,.06,.2,.1,.29,.13,.09,.03,.2,.04,.33,.04,.3,0,.55-.12,.75-.36Zm-.61-1.45c.07,.11,.11,.28,.11,.52s-.05,.43-.14,.55c-.09,.12-.23,.18-.43,.18-.07,0-.13,0-.18-.01-.05,0-.1-.02-.14-.04v-1.24c.07-.04,.13-.08,.21-.1,.07-.02,.14-.03,.21-.03,.16,0,.28,.05,.35,.16Zm1.32,1.77h.78v-2.46h-.78v2.46Zm-.02-2.81h.83v-.6h-.83v.6Zm2.78,1.65v.51c-.06,.06-.12,.1-.19,.13-.07,.03-.14,.05-.21,.05-.12,0-.21-.02-.28-.06-.06-.04-.09-.12-.09-.24,0-.08,.02-.14,.06-.19,.04-.05,.09-.08,.16-.11,.08-.03,.16-.05,.24-.06,.08,0,.19-.02,.32-.03Zm-.14,1.01s.09-.07,.14-.12v.26h.78v-1.67c0-.29-.1-.5-.29-.65-.2-.14-.51-.21-.94-.21-.18,0-.35,.02-.52,.05-.17,.03-.29,.06-.37,.08v.6h.07c.12-.05,.24-.09,.36-.13,.12-.03,.23-.05,.32-.05,.2,0,.36,.03,.46,.08,.1,.05,.15,.15,.15,.28h0c-.23,.03-.44,.05-.63,.07-.2,.03-.36,.07-.5,.14-.14,.07-.24,.16-.32,.27-.07,.11-.11,.26-.11,.44,0,.22,.07,.41,.22,.55,.15,.15,.33,.22,.55,.22,.12,0,.21,0,.28-.03,.07-.02,.13-.04,.2-.08,.07-.04,.13-.07,.17-.1Zm3.06,.14h.78v-1.6c0-.3-.07-.53-.2-.69-.14-.16-.33-.24-.59-.24-.15,0-.28,.03-.4,.09-.12,.06-.25,.14-.37,.25v-.27h-.78v2.46h.78v-1.74c.07-.05,.15-.09,.21-.11,.07-.02,.13-.04,.2-.04,.09,0,.15,.01,.2,.04,.05,.02,.09,.06,.12,.12,.02,.05,.04,.12,.05,.22,0,.1,.01,.2,.01,.3v1.22Zm35.21-2.64v2.64h.83v-2.64h.98v-.62h-2.8v.62h.98Zm3.73,.91h.06v-.73s-.05,0-.08,0c-.03,0-.06,0-.09,0-.07,0-.14,.01-.21,.04-.08,.02-.14,.05-.2,.09-.05,.03-.11,.07-.17,.12-.06,.05-.11,.09-.15,.12v-.35h-.78v2.46h.78v-1.64c.09-.03,.17-.06,.26-.08,.09-.02,.18-.03,.26-.03,.07,0,.13,0,.19,0,.06,0,.1,.01,.13,.02Zm1.74,.57v.51c-.06,.06-.12,.1-.19,.13-.07,.03-.14,.05-.21,.05-.12,0-.21-.02-.28-.06-.06-.04-.09-.12-.09-.24,0-.08,.02-.14,.06-.19,.04-.05,.09-.08,.16-.11,.08-.03,.16-.05,.24-.06,.08,0,.19-.02,.32-.03Zm-.14,1.01s.09-.07,.14-.12v.26h.78v-1.67c0-.29-.1-.5-.29-.65-.2-.14-.51-.21-.94-.21-.18,0-.35,.02-.52,.05-.17,.03-.29,.06-.37,.08v.6h.06c.12-.05,.24-.09,.36-.13,.12-.03,.23-.05,.32-.05,.2,0,.35,.03,.46,.08,.1,.05,.15,.15,.15,.28h0c-.23,.03-.44,.05-.63,.07-.2,.03-.36,.07-.5,.14-.14,.07-.24,.16-.32,.27-.07,.11-.11,.26-.11,.44,0,.22,.07,.41,.22,.55,.15,.15,.33,.22,.55,.22,.12,0,.21,0,.28-.03,.07-.02,.13-.04,.2-.08,.07-.04,.13-.07,.17-.1Zm3.06,.14h.78v-1.6c0-.3-.07-.53-.2-.69-.14-.16-.33-.24-.59-.24-.15,0-.28,.03-.4,.09-.12,.06-.24,.14-.37,.25v-.27h-.78v2.46h.78v-1.74c.08-.05,.15-.09,.21-.11,.07-.02,.13-.04,.2-.04,.08,0,.15,.01,.2,.04,.05,.02,.09,.06,.12,.12,.02,.05,.04,.12,.05,.22,0,.1,.01,.2,.01,.3v1.22Zm1.6,0c.16,.04,.34,.06,.52,.06,.2,0,.38-.02,.52-.06,.14-.04,.27-.1,.38-.18,.1-.07,.18-.16,.23-.26,.06-.1,.08-.21,.08-.33,0-.18-.05-.33-.14-.44-.09-.11-.23-.19-.41-.25-.08-.03-.16-.05-.25-.06-.09-.02-.17-.03-.23-.05-.13-.03-.21-.06-.25-.09-.04-.03-.06-.07-.06-.13,0-.06,.04-.11,.12-.15,.08-.04,.18-.06,.29-.06,.09,0,.17,0,.25,.03,.08,.02,.15,.04,.22,.07,.05,.02,.11,.05,.17,.09,.06,.03,.1,.06,.13,.08h.06v-.62c-.1-.05-.23-.09-.37-.12-.15-.03-.31-.05-.49-.05s-.35,.02-.5,.07c-.15,.04-.27,.1-.37,.18-.1,.07-.18,.16-.23,.26-.05,.1-.08,.2-.08,.31,0,.19,.05,.34,.15,.46,.1,.12,.25,.21,.44,.26,.07,.02,.15,.04,.24,.06,.09,.02,.17,.03,.23,.05,.11,.03,.19,.05,.23,.08s.06,.07,.06,.13c0,.07-.04,.13-.13,.16s-.18,.05-.29,.05-.21-.01-.3-.04c-.09-.02-.17-.05-.25-.09-.08-.04-.15-.07-.2-.1-.05-.03-.09-.06-.13-.09h-.06v.65c.11,.05,.24,.1,.41,.14Zm4.26-.32c.2-.24,.31-.56,.31-.95s-.08-.7-.24-.92c-.16-.23-.38-.34-.68-.34-.16,0-.29,.03-.41,.09-.12,.06-.24,.14-.35,.23v-.26h-.78v3.36h.78v-1.02c.11,.06,.2,.1,.29,.13,.09,.03,.2,.04,.33,.04,.3,0,.55-.12,.75-.36Zm-.61-1.45c.07,.11,.11,.28,.11,.52s-.05,.43-.14,.55c-.09,.12-.23,.18-.43,.18-.07,0-.13,0-.18-.01-.05,0-.1-.02-.14-.04v-1.24c.07-.04,.14-.08,.21-.1,.07-.02,.14-.03,.21-.03,.16,0,.28,.05,.35,.16Zm3.39,1.49c.22-.23,.34-.55,.34-.95s-.11-.72-.34-.96c-.22-.23-.54-.35-.95-.35s-.73,.12-.95,.35c-.23,.23-.34,.55-.34,.96s.11,.72,.34,.95c.23,.23,.54,.35,.95,.35s.73-.12,.96-.35Zm-.5-1.31c.03,.1,.04,.22,.04,.36,0,.16-.01,.28-.04,.37-.02,.09-.06,.16-.11,.23-.04,.05-.09,.09-.15,.12-.07,.03-.13,.04-.19,.04-.08,0-.15-.01-.21-.04-.06-.03-.12-.07-.16-.12-.04-.06-.07-.13-.1-.22-.02-.09-.04-.21-.04-.36s.01-.27,.04-.37c.03-.1,.06-.18,.11-.23,.05-.06,.1-.1,.16-.12,.06-.02,.12-.03,.19-.03,.07,0,.14,.01,.2,.04,.06,.02,.11,.07,.16,.13,.04,.06,.08,.13,.1,.23Zm2.87-.14h.06v-.73s-.05,0-.09,0c-.02,0-.03,0-.04,0-.01,0-.03,0-.04,0-.07,0-.14,.01-.21,.04-.07,.02-.14,.05-.2,.09-.05,.03-.11,.07-.17,.12-.07,.05-.11,.09-.15,.12v-.35h-.78v2.46h.78v-1.64c.08-.03,.17-.06,.26-.08,.09-.02,.17-.03,.26-.03,.07,0,.13,0,.19,0,.06,0,.1,.01,.13,.02Zm.63,1.59c.15,.13,.38,.19,.7,.19,.14,0,.26,0,.35-.02,.1-.01,.18-.03,.27-.05v-.54h-.07s-.07,.03-.14,.05c-.07,.02-.12,.03-.16,.03-.1,0-.18-.02-.23-.05-.05-.03-.09-.07-.11-.12-.02-.05-.03-.11-.04-.17,0-.02,0-.03,0-.05,0-.05,0-.11,0-.17v-.87h.75v-.53h-.75v-.7h-.78v.7h-.3v.53h.3v1.15c0,.29,.07,.5,.22,.63Zm5.06,.14h1.02l-1.12-1.39c.19-.09,.35-.21,.46-.37,.11-.16,.17-.36,.17-.61,0-.18-.03-.32-.1-.44-.07-.11-.16-.21-.28-.28-.12-.07-.24-.12-.38-.14-.14-.02-.3-.03-.48-.03h-1.34v3.26h.83v-1.2h.29l.92,1.2Zm-.37-2.48c.03,.06,.05,.13,.05,.21,0,.09-.01,.17-.04,.22-.02,.06-.07,.11-.12,.15-.06,.05-.12,.08-.21,.09-.08,.01-.18,.02-.29,.02h-.24v-.88h.28c.09,0,.17,0,.24,0,.06,0,.12,.02,.17,.04,.07,.03,.13,.08,.16,.14Zm3.66,2.2c.23-.23,.34-.55,.34-.95s-.11-.72-.34-.96c-.23-.23-.54-.35-.95-.35s-.73,.12-.95,.35c-.23,.23-.34,.55-.34,.96s.11,.72,.34,.95c.23,.23,.54,.35,.95,.35s.73-.12,.96-.35Zm-.5-1.31c.02,.1,.04,.22,.04,.36,0,.16-.01,.28-.04,.37-.02,.09-.06,.16-.11,.23-.04,.05-.09,.09-.15,.12-.07,.03-.13,.04-.19,.04-.08,0-.15-.01-.21-.04-.06-.03-.12-.07-.16-.12-.04-.06-.07-.13-.1-.22-.03-.09-.04-.21-.04-.36s.01-.27,.04-.37c.03-.1,.06-.18,.11-.23,.05-.06,.1-.1,.16-.12,.06-.02,.12-.03,.19-.03,.07,0,.14,.01,.2,.04,.06,.02,.11,.07,.16,.13,.04,.06,.08,.13,.1,.23Zm2.79,1.59h.78v-2.46h-.78v1.74c-.06,.05-.13,.08-.21,.11-.08,.03-.14,.04-.2,.04-.09,0-.16-.01-.21-.04-.05-.03-.09-.07-.11-.12-.03-.06-.04-.12-.05-.2,0-.08-.01-.18-.01-.31v-1.22h-.78v1.6c0,.31,.07,.54,.21,.69,.14,.15,.33,.23,.58,.23,.15,0,.29-.03,.4-.09,.11-.06,.24-.14,.37-.25v.27Zm1.64-.14c.15,.13,.38,.19,.69,.19,.14,0,.26,0,.35-.02,.1-.01,.19-.03,.27-.05v-.54h-.07s-.07,.03-.14,.05c-.07,.02-.12,.03-.16,.03-.1,0-.18-.02-.23-.05-.05-.03-.09-.07-.11-.12-.02-.05-.03-.11-.04-.17,0-.06,0-.14,0-.23v-.87h.75v-.53h-.75v-.7h-.78v.7h-.3v.53h.3v1.15c0,.29,.07,.5,.22,.63Zm1.82-.12c.25,.22,.62,.33,1.09,.33,.13,0,.24,0,.33-.02,.09-.01,.18-.03,.26-.05,.09-.02,.17-.04,.22-.06,.03-.01,.07-.03,.11-.04,.02,0,.04-.02,.07-.03v-.63h-.08s-.08,.05-.13,.09c-.05,.03-.11,.06-.18,.09-.07,.03-.15,.06-.24,.08-.09,.02-.18,.03-.27,.03-.11,0-.2,0-.29-.03-.09-.02-.17-.05-.23-.1-.07-.05-.12-.11-.17-.18-.04-.08-.07-.17-.07-.29h1.72v-.28c0-.38-.1-.67-.29-.87-.19-.2-.48-.31-.87-.31-.42,0-.75,.12-.99,.36-.24,.24-.35,.56-.35,.96s.13,.73,.38,.95Zm1.24-1.65c.07,.09,.11,.21,.12,.37h-.95c0-.15,.06-.28,.14-.37,.09-.09,.21-.14,.36-.14s.26,.04,.33,.13Zm-67.99,1.92h1.79v-.57h-.48v-2.12h.48v-.57h-1.79v.57h.48v2.12h-.48v.57Zm3.86,0h.78v-1.6c0-.3-.07-.53-.2-.69-.14-.16-.33-.24-.59-.24-.15,0-.28,.03-.4,.09-.12,.06-.24,.14-.37,.25v-.27h-.78v2.46h.78v-1.74c.07-.05,.15-.09,.21-.11,.07-.02,.13-.04,.2-.04,.09,0,.15,.01,.2,.04,.05,.02,.09,.06,.12,.12,.02,.05,.04,.12,.05,.22,0,.1,.01,.2,.01,.3v1.22Zm1.62-.14c.15,.13,.38,.19,.7,.19,.14,0,.26,0,.35-.02,.09-.01,.18-.03,.27-.05v-.54h-.07s-.07,.03-.14,.05c-.07,.02-.12,.03-.16,.03-.1,0-.18-.02-.23-.05-.05-.03-.09-.07-.11-.12-.02-.05-.04-.11-.04-.17,0-.06,0-.14,0-.23v-.87h.75v-.53h-.75v-.7h-.78v.7h-.3v.53h.3v1.15c0,.29,.07,.5,.22,.63Zm1.83-.12c.25,.22,.61,.33,1.09,.33,.13,0,.24,0,.33-.02,.09-.01,.18-.03,.26-.05,.09-.02,.16-.04,.22-.06l.04-.02s.09-.03,.14-.05v-.63h-.08s-.08,.05-.13,.09c-.05,.03-.11,.06-.18,.09-.07,.03-.15,.06-.24,.08-.09,.02-.18,.03-.27,.03-.11,0-.2,0-.29-.03-.09-.02-.17-.05-.23-.1-.07-.05-.12-.11-.17-.18-.04-.08-.07-.17-.07-.29h1.72v-.28c0-.38-.1-.67-.29-.87-.19-.2-.48-.31-.87-.31-.42,0-.75,.12-.99,.36-.24,.24-.35,.56-.35,.96s.13,.73,.38,.95Zm1.24-1.65c.07,.09,.11,.21,.12,.37h-.95c.01-.15,.06-.28,.14-.37,.09-.09,.21-.14,.36-.14s.26,.04,.33,.13Zm4.82,1.92h.78v-1.6c0-.3-.07-.53-.2-.69-.14-.16-.33-.24-.59-.24-.15,0-.28,.03-.4,.09-.12,.06-.25,.14-.37,.25v-.27h-.78v2.46h.78v-1.74c.07-.05,.15-.09,.21-.11,.07-.02,.13-.04,.2-.04,.09,0,.15,.01,.2,.04,.05,.02,.09,.06,.12,.12,.02,.05,.04,.12,.05,.22,0,.1,.01,.2,.01,.3v1.22Zm2.74-1.16v.51c-.06,.06-.12,.1-.19,.13-.07,.03-.14,.05-.21,.05-.12,0-.21-.02-.28-.06-.06-.04-.1-.12-.1-.24,0-.08,.02-.14,.06-.19,.04-.05,.09-.08,.16-.11,.08-.03,.16-.05,.24-.06,.08,0,.19-.02,.32-.03Zm-.14,1.01s.09-.07,.14-.12v.26h.78v-1.67c0-.29-.1-.5-.3-.65-.2-.14-.51-.21-.94-.21-.18,0-.35,.02-.52,.05-.17,.03-.3,.06-.37,.08v.6h.07c.12-.05,.24-.09,.36-.13,.12-.03,.23-.05,.32-.05,.2,0,.35,.03,.46,.08,.1,.05,.15,.15,.15,.28h0c-.23,.03-.43,.05-.63,.07-.19,.03-.36,.07-.5,.14-.14,.07-.24,.16-.32,.27-.07,.11-.11,.26-.11,.44,0,.22,.07,.41,.22,.55,.15,.15,.33,.22,.55,.22,.12,0,.21,0,.28-.03,.07-.02,.13-.04,.2-.08,.07-.04,.13-.07,.17-.1Zm1.76,0c.15,.13,.38,.19,.7,.19,.14,0,.26,0,.35-.02,.09-.01,.18-.03,.27-.05v-.54h-.07s-.07,.03-.14,.05c-.07,.02-.12,.03-.16,.03-.1,0-.18-.02-.23-.05-.05-.03-.09-.07-.11-.12-.02-.05-.03-.11-.03-.17,0-.06,0-.14,0-.23v-.87h.75v-.53h-.75v-.7h-.78v.7h-.3v.53h.3v1.15c0,.29,.07,.5,.22,.63Zm1.63,.14h.78v-2.46h-.78v2.46Zm-.02-2.81h.83v-.6h-.83v.6Zm3.47,2.53c.23-.23,.34-.55,.34-.95s-.11-.72-.34-.96c-.23-.23-.54-.35-.96-.35s-.73,.12-.95,.35c-.23,.23-.34,.55-.34,.96s.11,.72,.34,.95c.23,.23,.54,.35,.95,.35s.73-.12,.96-.35Zm-.5-1.31c.02,.1,.04,.22,.04,.36,0,.16-.01,.28-.04,.37-.02,.09-.06,.16-.1,.23-.04,.05-.09,.09-.16,.12-.07,.03-.13,.04-.19,.04-.08,0-.15-.01-.21-.04-.06-.03-.11-.07-.16-.12-.04-.06-.07-.13-.1-.22-.03-.09-.04-.21-.04-.36s.01-.27,.04-.37c.02-.1,.06-.18,.11-.23,.05-.06,.1-.1,.16-.12,.06-.02,.12-.03,.19-.03,.08,0,.14,.01,.2,.04,.06,.02,.11,.07,.16,.13,.04,.06,.08,.13,.1,.23Zm2.81,1.59h.78v-1.6c0-.3-.07-.53-.2-.69-.13-.16-.33-.24-.59-.24-.15,0-.28,.03-.4,.09-.12,.06-.25,.14-.37,.25v-.27h-.78v2.46h.78v-1.74c.07-.05,.15-.09,.21-.11,.06-.02,.13-.04,.19-.04,.09,0,.15,.01,.2,.04,.05,.02,.09,.06,.12,.12,.02,.05,.04,.12,.04,.22,0,.1,.01,.2,.01,.3v1.22Zm2.74-1.16v.51c-.06,.06-.12,.1-.19,.13-.07,.03-.14,.05-.21,.05-.12,0-.21-.02-.28-.06-.06-.04-.09-.12-.09-.24,0-.08,.02-.14,.06-.19s.09-.08,.16-.11c.08-.03,.16-.05,.24-.06,.08,0,.19-.02,.32-.03Zm-.09,.97s.06-.05,.09-.07v.26h.78v-1.67c0-.29-.1-.5-.29-.65-.2-.14-.51-.21-.94-.21-.18,0-.35,.02-.52,.05-.17,.03-.3,.06-.37,.08v.6h.07c.12-.05,.24-.09,.36-.13,.12-.03,.23-.05,.32-.05,.2,0,.36,.03,.46,.08,.1,.05,.15,.15,.15,.28h0c-.22,.03-.43,.05-.63,.07-.2,.03-.36,.07-.51,.14-.14,.07-.24,.16-.32,.27-.07,.11-.11,.26-.11,.44,0,.22,.07,.41,.22,.55,.15,.15,.33,.22,.55,.22,.12,0,.21,0,.28-.03,.06-.02,.13-.04,.2-.08,.07-.04,.13-.07,.17-.1,.02-.01,.04-.03,.06-.05Zm1.44,.19h.78v-3.41h-.78v3.41Z"/>
</svg>