<?xml version="1.0" encoding="UTF-8"?>
<svg id="Layer_1" data-name="Layer 1" xmlns="http://www.w3.org/2000/svg" viewBox="0 0 300 172">
  <defs>
    <style>
      .cls-1 {
        fill: #101216;
        fill-rule: evenodd;
      }
    </style>
  </defs>
  <path class="cls-1" d="M77.19,76.67l-3.08-2.25-.81,.59-1.6-1.16,.8-.6-3.08-2.25-.81,.59-.79-.59-3.13,2.25,.82,.6-1.6,1.16-.78-.59-3.13,2.25,.81,.59-.81,.59,3.13,2.25,.78-.59,1.6,1.16-.82,.59,3.13,2.25,.79-.6,.81,.6,3.13-2.25-.82-.59,1.6-1.16,.81,.59,3.05-2.25-.81-.59,.81-.59Zm-8.59,1.75l-1.6-1.17,1.6-1.16,1.6,1.16-1.6,1.17Zm23.87-6.39l-.52,1.71c-.59-.26-1.21-.42-1.85-.49-1.27-.13-1.88,.42-2.01,.84-.11,.29-.12,.61-.03,.91,.09,.3,.29,.56,.55,.73l.04,.03c1.69,1.17,2.65,1.84,2.86,3.08,.27,1.58-.16,3.75-3.16,4.25-1.38,.23-2.8,.05-4.08-.52l.52-1.83c.34,.22,.7,.39,1.07,.52,.77,.31,1.62,.33,2.4,.06,.29-.11,.53-.31,.72-.55,.18-.25,.3-.54,.32-.84,0-.31-.06-.61-.19-.89-.13-.28-.32-.52-.56-.72-.3-.26-.65-.47-.99-.67-1.06-.64-2.09-1.27-1.84-3.33,.23-1.46,1.45-2.81,3.7-2.86,1.04-.05,2.08,.15,3.04,.57Zm5.14,10.91h2.03l1.63-8.22h-2.02l-.88,4.38c-.48,2.23-1.62,2.59-2.29,2.49-.14,0-.28-.05-.41-.11-.13-.07-.24-.16-.33-.27-.45-.6-.16-1.93-.16-1.93l.91-4.57h-2.02l-.97,4.91s-.31,1.94,.52,2.77c.23,.24,.52,.44,.83,.56s.65,.18,.99,.16c.84,.06,1.49-.36,2.01-.7,.1-.07,.2-.13,.29-.19l-.14,.71Zm136.66-8.22h2.02l-.11,.7c.29-.31,.65-.55,1.05-.7,.4-.15,.83-.22,1.25-.19,.34-.02,.68,.04,.99,.16,.32,.13,.6,.32,.83,.56,.82,.83,.52,2.77,.52,2.77l-.97,4.91h-2.03l.91-4.57s.29-1.33-.17-1.93c-.09-.11-.2-.2-.32-.27-.12-.07-.26-.1-.41-.11-.67-.1-1.8,.26-2.29,2.49l-.9,4.38h-2.02l1.64-8.22Zm-120.17,2.39c.07-.48-.02-.96-.26-1.38-.2-.4-.52-.72-.91-.94-.39-.21-.84-.31-1.28-.26-.74,.07-1.44,.38-1.99,.88-.19,.2-.36,.41-.52,.63-.06-.33-.21-.64-.43-.9-.33-.34-.78-.54-1.26-.58-.49-.06-.99,0-1.44,.2-.46,.19-.86,.49-1.16,.88l.17-.92h-2.05l-1.52,8.22h2.02l.75-4.09s.43-2.19,1.49-2.62c.13-.07,.28-.11,.43-.12,.15,0,.3,.01,.44,.07,.14,.05,.27,.14,.37,.25,.1,.11,.18,.24,.23,.38,.1,.38,.1,.78,0,1.16l-.92,4.98h2.01l.8-4.34v-.02c.15-.64,.53-2.33,1.69-2.45,.16-.03,.33-.03,.49,.02,.16,.04,.31,.13,.43,.24,.12,.11,.21,.25,.27,.4,.06,.15,.08,.32,.06,.48,0,.29-.09,.88-.09,.88l-.88,4.79h2.02l1.04-5.63v-.2Zm31.41-1.38c.24,.42,.33,.9,.26,1.38l-.02,.2-1.04,5.63h-2.02l.88-4.79s.09-.59,.09-.88c.02-.16,0-.33-.06-.48-.06-.15-.15-.29-.27-.4-.12-.11-.27-.19-.43-.24-.16-.04-.32-.05-.49-.02-1.17,.12-1.55,1.86-1.69,2.47l-.75,4.32h-2.02l.92-4.98c.1-.38,.1-.78,0-1.16-.05-.14-.13-.27-.24-.38-.1-.11-.23-.19-.37-.25-.14-.05-.29-.08-.44-.07s-.3,.05-.43,.12c-1.06,.43-1.48,2.62-1.48,2.62l-.75,4.09h-2.03l1.52-8.22h2.02l-.17,.92c.3-.39,.7-.69,1.16-.88,.46-.19,.95-.26,1.45-.2,.48,.04,.93,.25,1.26,.6,.23,.25,.38,.56,.45,.9,.16-.22,.33-.43,.52-.63,.55-.5,1.24-.81,1.99-.88,.44-.04,.88,.06,1.27,.27,.39,.21,.7,.54,.9,.93Zm-27.29-1.02h-2.03l-1.63,8.22h2.02l1.64-8.22Zm.72-3.65h-2.02l-.4,1.98h2.02l.4-1.98Zm4.13,11.87c-.76,.29-1.6,.29-2.36,0-1.45-.52-1.04-2.44-1.04-2.44l.83-4.33h-1.52l.29-1.47h1.52l.34-1.73,2.18-.74-.52,2.47h1.73l-.27,1.47h-1.75l-.83,4.2c-.14,.59,.05,1.12,.52,1.22,.4,.04,.81-.02,1.18-.18l-.3,1.53Zm98.48-8.22h2.02l-1.64,8.22h-2.02l1.64-8.22Zm.72-3.65h2.02l-.39,1.98h-2.02l.39-1.98Zm-6.02,11.87c.76,.29,1.6,.29,2.36,0l.32-1.53c-.37,.16-.78,.22-1.18,.18-.47-.09-.66-.63-.52-1.22l.83-4.2h1.73l.29-1.46h-1.73l.52-2.47-2.2,.73-.34,1.73h-1.52l-.29,1.47h1.52l-.83,4.33s-.41,1.92,1.04,2.44Zm-49.17-.03h-.06c-.68,.13-2.98,.54-4.27-.06-2.05-.96-2.87-2.48-2.8-5.32,0-.95,.21-1.88,.62-2.73,.41-.85,1.02-1.6,1.77-2.18,2.97-2,6.77-.48,6.77-.48l-.52,1.68c-.97-.61-2.15-.81-3.27-.56-1.53,.29-2.74,1.5-3.13,3.5-.3,1.59,.13,3.82,1.68,4.48,.57,.22,1.19,.31,1.81,.25,.61-.06,1.21-.26,1.73-.59l-.33,2Zm12.85-4.1c-.04,.13-.07,.26-.09,.32l-.7,3.81h-2.02l1.51-8.22h2.02l-.29,1.43c.33-.59,.81-1.07,1.4-1.4,1.18-.52,1.65-.05,1.65-.05l-.45,2s-1.93-1-2.92,1.77c-.03,.08-.06,.21-.1,.35h0s0,0,0,0h0Zm23.59,.32c.03-.08,.09-.28,.14-.45h0c.02-.09,.05-.17,.06-.22,.99-2.77,2.92-1.77,2.92-1.77l.45-2s-.47-.47-1.65,.05c-.59,.33-1.08,.82-1.41,1.4l.29-1.43h-2.03l-1.5,8.22h2.03l.69-3.81Zm-79.16-.41c.31-2.43,2.18-4.21,4.52-4.21s3.84,1.82,3.53,4.52c-.1,1.14-.64,2.2-1.49,2.97-.85,.77-1.97,1.19-3.12,1.18-2.33,0-3.79-1.75-3.44-4.46Zm3.47,2.94c1.25,.07,2.18-1.03,2.47-2.52,.33-1.61-.2-2.93-1.24-3.02-1.44-.12-2.29,1.18-2.61,2.67s.22,2.8,1.38,2.88Zm23.51-7.15c-2.33,0-4.21,1.78-4.52,4.21-.34,2.71,1.1,4.46,3.44,4.46,1.15,0,2.26-.41,3.11-1.18,.85-.77,1.38-1.83,1.49-2.97,.31-2.71-1.19-4.52-3.53-4.52Zm1.44,4.63c-.3,1.49-1.23,2.59-2.48,2.52-1.16-.08-1.7-1.39-1.38-2.88,.32-1.49,1.17-2.79,2.6-2.67,1.03,.09,1.57,1.41,1.25,3.02Zm15.75-.41c.31-2.43,2.19-4.21,4.52-4.21s3.84,1.82,3.53,4.52c-.11,1.14-.64,2.2-1.49,2.97-.85,.77-1.97,1.19-3.12,1.18-2.33,0-3.79-1.75-3.44-4.46Zm3.49,2.94c1.25,.07,2.17-1.03,2.48-2.52,.32-1.61-.22-2.93-1.25-3.02-1.44-.12-2.29,1.18-2.6,2.67-.32,1.49,.22,2.8,1.38,2.88Zm16.52-7.11c-.43,0-.85,.08-1.23,.26-.39,.18-.73,.44-1,.77l.16-.84h-2.03l-2.2,11.64h2.02l.87-4.6c.13,.42,.4,.78,.76,1.03s.79,.38,1.23,.36c2.65,.05,3.85-1.86,4.17-4.3,.31-2.45-.51-4.37-2.75-4.33Zm.67,4.59c-.26,1.47-1.04,2.51-2.19,2.44-1.15-.07-1.7-1.19-1.24-2.98,.42-1.66,1.12-2.46,2.14-2.44,1.26,.03,1.58,1.42,1.3,2.98Zm3.14-.41c.31-2.43,2.18-4.21,4.52-4.21s3.84,1.82,3.53,4.52c-.1,1.14-.64,2.2-1.49,2.97-.85,.77-1.97,1.19-3.12,1.18-2.33,0-3.79-1.75-3.44-4.46Zm3.49,2.94c1.25,.07,2.18-1.03,2.47-2.52,.32-1.61-.21-2.93-1.25-3.02-1.44-.12-2.28,1.18-2.6,2.67s.22,2.8,1.38,2.88Zm16.36-7.03c-1.64-.62-4.09,.32-4.09,.32l-.26,1.59c.88-.38,1.82-.59,2.78-.61,1.87,.1,1.25,1.96,1.25,1.96-1.16-.12-2.34-.02-3.46,.29-1.11,.43-2.08,1.11-2.08,2.59,0,1.09,.57,2.34,2.55,2.28,.49-.05,.97-.21,1.39-.47,.42-.26,.78-.61,1.05-1.03,0-.04-.23,1.38-.23,1.38h1.7c.05-.28,.12-.69,.2-1.17h0c.28-1.57,.67-3.84,.73-4.34,.08-.65,.16-2.14-1.54-2.8Zm-1.44,6.48c-.65,.6-1.78,.6-2.23,.12-.45-.47-.22-1.2,.31-1.61,1.04-.79,2.82-.48,2.82-.48-.03,.75-.36,1.45-.9,1.97Zm13.28-2.38c.31-2.43,2.18-4.21,4.52-4.21s3.86,1.82,3.53,4.52c-.1,1.14-.64,2.2-1.49,2.97-.85,.77-1.97,1.19-3.12,1.18-2.33,0-3.79-1.75-3.44-4.46Zm3.48,2.94c1.25,.07,2.18-1.03,2.48-2.52,.33-1.61-.22-2.93-1.25-3.02-1.44-.12-2.29,1.18-2.61,2.67-.32,1.49,.22,2.8,1.38,2.88Zm-81.08,17.67l-.03-.03,.03-.23,.03-.03s.09-.01,.13-.04c.04-.02,.07-.05,.1-.08,.02-.04,.04-.08,.06-.13,.02-.07,.03-.14,.03-.21v-3.88c0-.09-.01-.17-.02-.26,0-.06-.02-.12-.05-.17-.02-.04-.06-.08-.1-.1-.07-.03-.14-.05-.22-.07v-.26l.99-.05h.45l.03,.03-.02,2.16c.18-.17,.38-.32,.6-.44,.16-.08,.34-.13,.52-.13,.22-.01,.43,.04,.61,.15,.15,.11,.26,.27,.31,.45,.07,.25,.11,.5,.1,.76v1.73c0,.08,.01,.16,.03,.24,.01,.05,.03,.1,.06,.15,.03,.04,.06,.07,.1,.09,.05,.03,.11,.05,.17,.06v.23l-.03,.02h-1.71l-.03-.03,.03-.23c.09-.02,.17-.06,.23-.12,.04-.07,.07-.14,.08-.22,.02-.17,.03-.34,.02-.51v-1c0-.2,0-.4-.02-.6,0-.11-.04-.23-.08-.33-.03-.07-.08-.13-.14-.17-.07-.04-.15-.06-.23-.06-.1,0-.2,.04-.29,.09-.1,.06-.18,.15-.25,.24-.06,.1-.1,.22-.1,.34v1.83c0,.06,0,.12,0,.18,0,.04,.02,.08,.03,.11,.01,.03,.03,.06,.06,.09,.02,.03,.05,.06,.09,.08,.05,.03,.1,.05,.16,.06v.26l-.03,.02-1.69-.03Zm-6.72,0l-.03-.03,.03-.23c.09-.01,.17-.05,.23-.11,.06-.06,.1-.15,.1-.23,.02-.17,.03-.34,.02-.51v-1.8c0-.1,0-.2,0-.3,0-.06-.03-.13-.06-.18-.03-.05-.07-.08-.12-.11-.06-.03-.13-.05-.2-.06v-.27l.03-.02h1.41l.03,.03-.02,2.71v.51s.02,.08,.03,.11c.01,.03,.03,.06,.05,.09,.02,.03,.06,.06,.09,.08,.05,.03,.11,.05,.16,.06v.23l-.03,.02h-1.72Zm.4-4.42l-.03-.03,.03-.92,.03-.03,.95,.03,.03,.03-.03,.89-.03,.03h-.95Zm-13.95,4.42l-.03-.03h0c.03-.21,.03-.25,.05-.25,0,0,0,0,0,0,.07,0,.13-.02,.18-.06,.05-.03,.09-.07,.11-.12,.03-.06,.04-.13,.05-.2v-3.93c0-.07-.02-.14-.05-.2-.03-.05-.06-.1-.11-.13-.07-.04-.14-.07-.22-.08v-.26l.03-.03,3.53,.03,.03,.03-.03,1.18-.03,.03-.47-.02c-.05-.17-.12-.34-.2-.5-.05-.08-.12-.15-.2-.21-.12-.06-.26-.09-.4-.08h-.75l-.03,1.82,.47,.02c.09,0,.17-.01,.25-.05,.06-.04,.11-.09,.15-.16,.05-.11,.09-.23,.11-.35h.4l.03,.03-.03,1.54-.03,.03-.4-.03c-.02-.12-.06-.23-.11-.34-.03-.07-.08-.13-.14-.17-.08-.04-.16-.05-.25-.05h-.44l-.03,2.03,.79,.03c.07,0,.14,0,.21,0,.05-.01,.1-.03,.15-.06,.05-.03,.09-.07,.13-.12,.04-.05,.08-.1,.11-.16,.04-.07,.07-.15,.1-.22,.05-.13,.08-.26,.11-.4h.47l.03,.03-.07,1.35-.03,.03h-3.47Zm4.72,0l-.03-.03,.03-.23c.09-.02,.17-.06,.24-.13,.05-.06,.08-.14,.09-.22,.02-.17,.03-.34,.02-.51v-2c0-.07-.02-.15-.04-.22-.02-.05-.06-.1-.1-.13-.07-.05-.15-.08-.24-.09v-.28l.03-.02h1.38l.03,.03-.05,.53h.05c.12-.13,.25-.24,.4-.34,.11-.08,.23-.15,.35-.19,.13-.05,.26-.07,.4-.07,.17,0,.33,.03,.49,.09,.13,.06,.23,.15,.31,.26,.09,.13,.14,.27,.17,.42,.04,.19,.05,.39,.05,.58v1.73c0,.08,0,.16,.03,.24,.01,.05,.03,.1,.06,.15,.03,.04,.06,.07,.1,.09,.05,.03,.11,.05,.16,.06v.23l-.03,.02h-1.71l-.03-.03,.03-.23c.09-.02,.17-.06,.23-.13,.05-.06,.08-.14,.09-.22,.02-.17,.03-.34,.02-.51v-1.48c0-.1-.02-.19-.03-.29-.01-.06-.03-.13-.06-.19-.02-.05-.05-.09-.09-.12-.03-.03-.07-.06-.11-.07-.05-.02-.11-.03-.17-.02-.1,0-.2,.04-.28,.09-.1,.06-.18,.15-.25,.25-.06,.1-.1,.22-.1,.34v1.49c0,.17,0,.34,.02,.51,0,.08,.04,.16,.09,.22,.06,.07,.14,.11,.23,.13v.26l-.03,.02-1.74-.02Zm4.92-.03l.03,.03h1.77l.03-.02,.02-.2-.02-.03c-.09,0-.18-.04-.24-.11-.07-.06-.1-.15-.11-.24-.02-.17-.03-.34-.02-.51v-1.23c0-.1,0-.2,0-.3,0-.07,.02-.13,.04-.2,.02-.07,.06-.14,.12-.19,.05-.06,.11-.11,.17-.15,.05-.03,.11-.05,.17-.05,.05,0,.1,0,.15,.03,.04,.02,.08,.05,.12,.09,.08,.1,.13,.22,.16,.34l.62,.03,.03-.03v-1.07c-.15-.03-.31-.05-.46-.05-.21,0-.43,.06-.61,.16-.2,.11-.38,.27-.52,.46h-.05l.05-.55-.03-.03h-1.38l-.03,.02v.28c.09,.01,.17,.04,.24,.09,.05,.03,.08,.08,.1,.13,.02,.07,.04,.14,.04,.22v2c0,.17,0,.34-.02,.51,0,.09-.04,.17-.1,.23-.06,.06-.14,.1-.23,.12l-.03,.23Zm7.71-.01c.21,.09,.43,.12,.65,.11,.25,0,.49-.06,.71-.17,.25-.13,.48-.3,.68-.49v-.04l-.26-.33h-.05c-.12,.13-.25,.24-.4,.32-.12,.07-.26,.1-.4,.1-.09,0-.17,0-.25-.04-.08-.03-.15-.07-.21-.13-.13-.13-.22-.3-.25-.48-.06-.25-.08-.5-.08-.76,0-.25,.02-.5,.06-.75,.03-.16,.07-.32,.14-.47,.05-.1,.12-.19,.21-.25,.08-.05,.16-.07,.25-.07,.06,0,.12,.01,.18,.04s.1,.07,.13,.12c.09,.15,.13,.33,.13,.5l.03,.03,.68,.03,.03-.03v-.93c-.17-.05-.35-.09-.52-.12-.19-.03-.39-.04-.58-.04-.34,0-.67,.08-.96,.24-.28,.16-.51,.41-.64,.7-.15,.34-.23,.72-.22,1.09-.04,.51,.1,1.01,.4,1.43,.15,.17,.33,.3,.54,.39Zm7.85,.01l.03,.03h1.7s.03-.02,.03-.02v-.23c-.06-.01-.11-.03-.16-.06-.04-.02-.07-.04-.1-.07-.02-.03-.04-.06-.05-.09-.01-.04-.02-.08-.03-.11,0-.06,0-.12,0-.18v-.33l.03-2.72-.03-.03h-1.4l-.03,.02v.27c.07,.01,.13,.03,.2,.06,.05,.02,.09,.06,.12,.11,.03,.05,.05,.12,.06,.18,0,.1,0,.2,0,.3v1.8c.01,.17,.01,.34,0,.51-.01,.08-.04,.15-.09,.22-.07,.07-.15,.11-.24,.13l-.03,.23Zm.38-4.42l.03,.03h.96l.03-.03,.03-.89-.03-.03-.96-.03-.03,.03-.03,.92Zm2.48,4.45l-.03-.03,.03-.23c.09-.01,.17-.05,.22-.12,.06-.06,.1-.15,.1-.23,.02-.17,.03-.34,.02-.51v-2c0-.07-.02-.15-.04-.22-.02-.05-.06-.1-.1-.13-.07-.05-.16-.08-.24-.09v-.28l.03-.02h1.38l.03,.03-.05,.53h.05v-.04l.03-.03h0c.14-.12,.25-.21,.36-.28,.11-.08,.23-.15,.35-.19,.13-.05,.26-.07,.4-.07,.17,0,.33,.03,.49,.09,.13,.06,.23,.15,.31,.26,.09,.13,.14,.27,.17,.42,.04,.19,.06,.39,.05,.58v1.73c0,.08,0,.16,.02,.24,.01,.05,.03,.1,.06,.15,.03,.04,.07,.07,.11,.09,.05,.03,.11,.05,.16,.06v.23l-.03,.02h-1.71l-.03-.03,.03-.23c.09-.02,.17-.06,.23-.13,.05-.07,.08-.14,.09-.22,.02-.17,.03-.34,.02-.51v-1.47c0-.1-.02-.19-.04-.29-.01-.06-.03-.13-.06-.19-.02-.05-.05-.09-.09-.12-.03-.03-.07-.06-.12-.07-.05-.02-.11-.03-.16-.02-.1,0-.2,.04-.28,.09-.1,.06-.18,.15-.25,.25-.07,.1-.1,.22-.1,.34v1.49c0,.17,0,.34,.02,.51,0,.08,.04,.16,.09,.22,.06,.07,.14,.11,.23,.13v.26l-.03,.02-1.74-.02Zm5.81,1.69c.24,.03,.49,.04,.74,.04,.33,.01,.66-.04,.98-.14,.25-.09,.46-.25,.62-.45,.15-.21,.22-.46,.22-.71,.01-.15,0-.29-.06-.43-.05-.14-.14-.26-.24-.36-.26-.19-.57-.28-.89-.25h-.9c-.1,0-.21,0-.31-.03-.06-.01-.12-.05-.15-.1-.04-.05-.05-.11-.04-.18,0-.14,.07-.28,.17-.37,.19,.05,.39,.08,.58,.07,.4,.03,.8-.1,1.11-.35,.13-.13,.24-.29,.31-.47,.07-.18,.1-.36,.09-.55,0-.15-.02-.31-.07-.45-.03-.11-.09-.21-.17-.29v-.05l.58,.07,.03-.02,.03-.45-.03-.03h-1.29l-.27-.04c-.11-.02-.21-.02-.32-.02-.21,0-.41,.02-.62,.07-.18,.05-.35,.13-.5,.24-.14,.11-.26,.25-.33,.42-.08,.19-.12,.4-.12,.62,0,.22,.04,.45,.14,.65,.09,.19,.24,.34,.43,.44-.11,.09-.21,.18-.31,.28-.08,.09-.14,.18-.19,.29-.05,.11-.07,.22-.07,.34,0,.13,.02,.25,.07,.37,.05,.11,.12,.2,.22,.26-.14,.08-.27,.18-.36,.32-.08,.12-.13,.25-.13,.39,0,.16,.04,.32,.13,.45,.09,.12,.22,.22,.36,.28,.18,.07,.37,.12,.56,.14Zm-.15-1.21c.05-.09,.11-.17,.19-.23,.14,0,.27,0,.41,0h.62c.12,0,.24,.01,.35,.06,.07,.03,.13,.09,.17,.15,.03,.07,.04,.15,.04,.23,0,.09-.02,.18-.06,.26-.04,.08-.1,.15-.18,.2-.21,.12-.44,.18-.68,.16-.24,.01-.49-.03-.71-.13-.07-.04-.13-.1-.17-.17-.04-.07-.06-.15-.06-.23,0-.1,.02-.2,.07-.29Zm.61-3.92c.07-.04,.15-.06,.23-.05,.08,0,.16,.02,.23,.07,.07,.04,.12,.11,.15,.18,.1,.23,.14,.48,.13,.72,.01,.23-.03,.46-.13,.67-.04,.07-.09,.13-.16,.16-.07,.04-.14,.06-.22,.05-.08,0-.16-.02-.23-.06-.07-.04-.13-.1-.16-.18-.1-.23-.14-.48-.13-.72-.01-.23,.03-.47,.13-.68,.04-.07,.1-.13,.17-.17Zm5.58,3.44l-.03-.03,.03-.23,.03-.03s.09-.01,.13-.04c.04-.02,.07-.05,.09-.08,.03-.04,.05-.08,.06-.13,.02-.07,.03-.14,.03-.21v-3.88c0-.09,0-.17-.02-.26,0-.06-.02-.12-.05-.17-.03-.04-.06-.08-.11-.1-.07-.03-.14-.06-.21-.07v-.26l1-.05h.44l.03,.03-.03,4.38c0,.17,0,.34,.02,.51,.01,.08,.04,.15,.09,.22,.07,.07,.15,.11,.25,.13v.23l-.03,.02h-1.72Zm2.8-.03l.03,.03h1.71s.03-.02,.03-.02v-.23c-.06-.01-.11-.03-.16-.06-.04-.02-.07-.04-.09-.07-.02-.03-.04-.06-.05-.09-.02-.04-.03-.08-.03-.11,0-.06,0-.12,0-.18v-.33l.03-2.72-.03-.03h-1.41l-.03,.02v.27c.07,.01,.13,.03,.2,.06,.05,.02,.09,.06,.12,.11,.04,.06,.06,.12,.06,.18,0,.1,0,.2,0,.3v1.8c0,.17,0,.34-.02,.51-.01,.08-.04,.15-.09,.22-.06,.07-.15,.11-.24,.13l-.03,.23Zm.38-4.42l.03,.03h.96l.03-.03,.03-.89-.03-.03-.95-.03-.03,.03-.03,.92Zm3.65,4.49l-.95-2.93c-.04-.14-.09-.28-.15-.42-.03-.07-.08-.12-.14-.17-.05-.04-.11-.07-.18-.08v-.26l.03-.02,1.76,.02,.03,.04-.03,.23-.04,.03c-.08,0-.15,.03-.21,.08-.03,.03-.05,.06-.06,.1-.01,.04-.02,.07-.02,.11,0,.16,.04,.32,.1,.48l.52,1.69,.56-1.48c.05-.12,.08-.23,.11-.32,.02-.09,.03-.18,.04-.28,0-.1-.03-.19-.09-.27-.06-.07-.15-.12-.24-.13l-.02-.03,.02-.23,.03-.02,1.37,.02,.03,.04-.02,.23-.04,.03c-.05,0-.1,.02-.14,.06-.04,.04-.08,.08-.11,.13-.05,.08-.1,.16-.14,.24-.05,.11-.12,.27-.21,.49l-1.11,2.65h-.03l-.66,.02Zm4.25-.08c.22,.09,.45,.12,.68,.1,.29,.01,.57-.04,.83-.16,.27-.14,.51-.33,.72-.55v-.04l-.27-.32h-.04c-.13,.14-.28,.27-.45,.36-.15,.07-.32,.11-.49,.11-.13,0-.27-.02-.39-.08-.12-.06-.22-.15-.3-.25-.17-.31-.24-.67-.2-1.02l2.21,.03,.03-.03c0-.27-.02-.53-.08-.79-.04-.19-.11-.38-.2-.56-.07-.13-.17-.25-.29-.35-.13-.1-.27-.18-.42-.23-.18-.06-.38-.08-.57-.08-.32,0-.64,.07-.93,.23-.27,.16-.49,.4-.61,.69-.15,.34-.22,.71-.21,1.08-.04,.52,.11,1.04,.42,1.46,.16,.17,.35,.3,.57,.39Zm.45-3.36c.08-.05,.17-.08,.26-.09h0c.09,0,.18,.03,.25,.08,.07,.05,.13,.12,.16,.21,.1,.28,.14,.58,.12,.88h-1.16c0-.3,.07-.6,.19-.87,.04-.09,.1-.16,.17-.21Zm4.25,3.47c-.44,0-.88-.07-1.31-.18v-.92l.03-.03,.45,.03c.04,.2,.13,.38,.27,.53,.07,.06,.15,.11,.23,.14,.09,.03,.18,.04,.27,.04,.14,0,.29-.04,.4-.13,.05-.05,.09-.11,.11-.18,.02-.07,.03-.14,.02-.21,0-.09-.02-.19-.06-.27-.05-.09-.12-.16-.21-.21-.16-.1-.32-.19-.5-.27-.13-.06-.25-.13-.37-.21-.11-.07-.22-.16-.3-.25-.09-.09-.15-.2-.2-.32-.05-.12-.08-.26-.07-.4,0-.21,.06-.43,.19-.6,.14-.18,.32-.32,.53-.4,.25-.09,.52-.14,.8-.13,.17,0,.35,0,.51,.02,.22,.02,.44,.05,.65,.1v.9l-.03,.03-.44-.03c-.04-.14-.1-.27-.18-.39-.05-.08-.13-.15-.21-.19-.09-.04-.19-.06-.28-.06-.13,0-.27,.04-.37,.12-.05,.04-.08,.09-.11,.14-.02,.06-.04,.12-.03,.18,0,.09,.02,.17,.05,.25,.04,.08,.11,.15,.18,.2,.16,.1,.32,.19,.5,.26,.2,.08,.38,.19,.55,.31,.14,.11,.25,.24,.33,.4,.08,.16,.12,.33,.11,.5,0,.18-.03,.37-.11,.54-.07,.15-.17,.28-.3,.38-.14,.1-.3,.18-.46,.22-.19,.06-.39,.09-.6,.09Zm5.34-.12c.17,.09,.35,.13,.54,.12,.21,0,.43-.04,.62-.13,.21-.12,.4-.27,.56-.45l.06,.02-.03,.48,.03,.03,1.27,.02,.03-.02v-.26c-.07-.01-.13-.04-.19-.06-.04-.01-.07-.04-.09-.07-.03-.03-.05-.07-.06-.11-.02-.07-.03-.14-.04-.21v-1.9c.01-.26-.03-.53-.13-.77-.08-.17-.22-.31-.4-.4-.22-.09-.46-.13-.7-.12-.11,0-.23,0-.34,.02-.13,.02-.27,.04-.4,.08-.15,.04-.29,.08-.43,.14l-.24,.1c-.11,.04-.21,.09-.31,.15l-.03,.68,.03,.03h.68c.02-.17,.07-.33,.14-.47,.05-.1,.12-.18,.22-.23,.09-.04,.18-.06,.28-.06,.1,0,.2,.03,.28,.08,.09,.07,.16,.17,.19,.27,.06,.18,.08,.37,.08,.55v.37c-.55,0-1.1,.14-1.59,.4-.16,.09-.29,.22-.38,.38-.09,.16-.14,.34-.14,.52,0,.17,.04,.35,.12,.5,.08,.14,.2,.26,.35,.34Zm.81-1.54c.24-.16,.53-.24,.82-.23v.64c0,.12-.03,.23-.09,.34-.06,.1-.14,.19-.23,.25-.09,.06-.2,.09-.31,.09-.06,0-.12,0-.18-.03-.06-.02-.11-.05-.15-.1-.09-.1-.13-.23-.12-.36,0-.11,.01-.23,.06-.34,.05-.11,.12-.2,.21-.27Zm3.23,1.6l-.03-.03,.03-.23c.09-.02,.17-.06,.24-.13,.05-.06,.08-.14,.09-.22,.02-.17,.03-.34,.02-.51v-2c0-.07-.01-.15-.04-.22-.02-.05-.06-.1-.1-.13-.07-.05-.16-.08-.24-.09v-.28l.03-.02h1.37l.03,.03-.05,.53h.05c.12-.12,.25-.24,.4-.34,.11-.08,.23-.14,.35-.19,.13-.05,.26-.07,.4-.07,.17,0,.33,.03,.49,.09,.13,.06,.24,.15,.32,.26,.08,.13,.14,.27,.17,.42,.02,.19,.02,.39,0,.58v1.73c0,.08,0,.16,.03,.24,.01,.05,.03,.1,.06,.15,.03,.04,.06,.07,.1,.09,.05,.03,.11,.05,.17,.06v.23l-.03,.02h-1.71l-.03-.03,.02-.23c.09-.01,.17-.06,.23-.13,.05-.06,.08-.14,.09-.22,.02-.17,.03-.34,.02-.51v-1.47c0-.1-.01-.19-.03-.29-.01-.06-.03-.13-.06-.19-.02-.04-.05-.09-.09-.12-.03-.03-.07-.06-.12-.07-.05-.02-.11-.03-.16-.02-.1,0-.2,.03-.28,.09-.1,.06-.18,.15-.25,.25-.07,.1-.1,.22-.1,.34v1.49c0,.17,0,.34,.02,.51,0,.08,.04,.16,.09,.22,.06,.07,.14,.11,.23,.13v.26l-.03,.02-1.69-.02Zm5.5-.05c.17,.08,.36,.12,.56,.11,.19,0,.39-.05,.55-.15,.21-.11,.39-.26,.54-.43h.06l-.03,.53,.03,.03h.4l.98-.03v-.26c-.08-.01-.17-.04-.24-.09-.05-.03-.08-.08-.1-.13-.03-.07-.04-.14-.04-.22v-.43l.03-4.37-.03-.03h-.45l-1,.05v.28c.09,.01,.17,.04,.25,.09,.05,.04,.08,.09,.1,.14,.03,.08,.04,.17,.05,.26v.92c-.12-.03-.24-.06-.36-.08-.1-.01-.21-.02-.31-.02-.33-.01-.65,.07-.94,.23-.26,.16-.47,.4-.59,.68-.14,.35-.21,.73-.2,1.11-.03,.51,.08,1.01,.32,1.45,.11,.16,.25,.29,.43,.37Zm.82-3.4c.07-.03,.14-.04,.22-.04h0c.09,0,.17,.03,.25,.07,.08,.04,.14,.11,.18,.18,.11,.21,.16,.45,.15,.7v1.26c0,.14-.03,.28-.1,.4-.06,.11-.15,.2-.25,.26-.09,.05-.2,.08-.31,.08-.11,0-.21-.04-.3-.11-.08-.07-.15-.16-.18-.27-.12-.37-.17-.75-.15-1.13,0-.26,.02-.51,.08-.77,.04-.18,.12-.35,.24-.49,.05-.06,.11-.1,.18-.13Zm6.97,3.51c-.15,.01-.29-.01-.43-.07s-.26-.14-.36-.25c-.2-.27-.29-.61-.26-.94v-2.14h-.46l-.03-.03,.03-.24c.11-.01,.22-.05,.32-.11,.07-.05,.13-.12,.16-.21,.04-.11,.07-.22,.09-.34,.03-.17,.04-.35,.05-.52l.03-.03,.83,.02,.03,.03-.03,.91,1.02,.02,.03,.03-.03,.45-.03,.03-.96-.03-.03,1.74c0,.22,0,.43,.04,.64,.01,.11,.06,.22,.13,.3,.03,.03,.06,.06,.1,.07,.04,.02,.08,.03,.12,.03,.06,0,.12,0,.18-.02,.06-.02,.11-.04,.17-.07,.06-.03,.11-.07,.16-.12h.04l.21,.3v.04c-.18,.14-.37,.26-.57,.37-.18,.08-.37,.12-.56,.11Zm1.88-.09l.03,.03,1.71,.03,.03-.02v-.26c-.06-.01-.11-.03-.16-.06-.04-.02-.07-.04-.09-.08-.02-.03-.04-.06-.05-.09-.01-.04-.02-.08-.03-.11v-2.01c0-.12,.04-.24,.1-.34,.06-.1,.15-.18,.25-.24,.08-.05,.18-.09,.28-.09,.08,0,.16,.02,.23,.06,.06,.04,.11,.1,.14,.17,.04,.11,.07,.22,.08,.33,.02,.2,.03,.4,.02,.6v1c0,.17,0,.34-.02,.51,0,.08-.04,.16-.09,.22-.06,.06-.14,.11-.23,.12l-.03,.23,.03,.03h1.72l.03-.02v-.23c-.06-.01-.11-.04-.16-.06-.04-.03-.08-.06-.11-.09-.03-.05-.05-.09-.06-.15-.02-.08-.03-.16-.03-.24v-1.73c0-.26-.03-.51-.1-.76-.05-.18-.17-.34-.32-.45-.18-.11-.39-.17-.61-.15-.18,0-.37,.05-.53,.13-.22,.12-.42,.27-.59,.44l.03-2.16-.03-.03h-.47l-1,.05v.26c.08,.01,.15,.03,.22,.07,.04,.02,.08,.06,.1,.1,.03,.05,.05,.11,.06,.17,.01,.09,.02,.17,.02,.26v3.88c0,.07-.01,.14-.03,.21-.01,.05-.03,.09-.06,.13-.02,.03-.05,.06-.09,.08-.04,.02-.08,.04-.13,.04l-.03,.03-.03,.23Zm6.68,.09c-.23,.02-.47-.02-.69-.11-.22-.09-.41-.22-.58-.39-.31-.42-.46-.94-.42-1.46,0-.37,.07-.74,.22-1.08,.13-.29,.34-.53,.62-.69,.28-.16,.6-.24,.93-.23,.19,0,.39,.02,.57,.08,.15,.05,.3,.13,.42,.23,.12,.1,.21,.22,.29,.35,.09,.17,.16,.36,.21,.56,.05,.26,.08,.52,.07,.79l-.03,.03-2.22-.03c-.04,.35,.03,.71,.21,1.02,.08,.11,.18,.2,.3,.25,.12,.06,.25,.08,.39,.08,.17,0,.34-.04,.49-.11,.17-.1,.32-.22,.45-.36h.04l.27,.32v.04c-.21,.22-.45,.41-.72,.55-.26,.11-.54,.17-.82,.16Zm.02-3.56c-.09,0-.18,.03-.26,.09-.08,.05-.14,.13-.17,.21-.12,.27-.19,.57-.19,.87h1.16c.02-.3-.02-.6-.12-.88-.03-.09-.09-.16-.16-.21-.07-.05-.16-.08-.25-.08h0Zm5.23,.59l.87,2.94,.68,.02,.03-.02,.79-2.49,.68,2.49,.72-.02,.96-2.65c.08-.23,.15-.4,.19-.5,.03-.08,.07-.16,.11-.24,.03-.05,.07-.09,.11-.13,.04-.03,.09-.05,.13-.05l.03-.03,.03-.23-.03-.04-1.32-.02-.03,.02-.02,.23,.03,.03c.09,.01,.18,.06,.24,.13,.06,.08,.09,.17,.08,.27,0,.08-.01,.17-.03,.25-.02,.12-.06,.24-.1,.35l-.47,1.39-.69-2.65h-.68l-.82,2.65-.45-1.6s0-.02,0-.04c0-.02-.01-.03-.02-.05h0c-.02-.06-.04-.11-.04-.16-.02-.07-.03-.14-.03-.22,0-.04,0-.08,.02-.12,.01-.04,.04-.07,.07-.1,.06-.06,.14-.08,.22-.08l.03-.03,.03-.23-.03-.04-1.72-.02-.03,.02v.26c.07,.01,.13,.05,.18,.09,.05,.05,.1,.12,.12,.19,.05,.13,.1,.26,.13,.4Zm7.89,2.96c-.32,0-.63-.06-.91-.2-.26-.14-.47-.37-.6-.64-.16-.35-.23-.73-.21-1.11,0-.3,.04-.61,.13-.9,.08-.23,.2-.44,.37-.62,.16-.17,.35-.29,.57-.36,.23-.08,.47-.12,.71-.12,.24-.02,.48,.02,.71,.1,.23,.08,.43,.22,.6,.39,.32,.41,.48,.93,.44,1.45,.01,.39-.06,.77-.22,1.13-.13,.28-.35,.52-.63,.67-.3,.15-.63,.23-.96,.22Zm.04-3.56c-.07,0-.15,0-.22,.04s-.13,.07-.18,.13c-.11,.15-.18,.32-.21,.5-.05,.28-.07,.57-.07,.85-.02,.42,.04,.83,.17,1.22,.03,.11,.1,.21,.19,.28,.09,.07,.2,.11,.32,.12,.12,0,.23-.03,.32-.11,.09-.08,.16-.18,.2-.3,.06-.15,.09-.31,.11-.47,.02-.21,.03-.41,.03-.62,.02-.42-.04-.84-.17-1.24-.1-.24-.27-.39-.49-.39h0Zm2.88,3.46l.03,.03,1.75,.02,.03-.02,.02-.2-.02-.03c-.09,0-.18-.04-.24-.11-.07-.06-.1-.15-.11-.24-.02-.17-.03-.34-.02-.51v-1.23c0-.1,0-.2,0-.3,0-.07,.02-.13,.04-.2,.03-.07,.06-.14,.12-.19,.05-.06,.11-.11,.18-.15,.05-.03,.11-.05,.17-.05,.05,0,.1,0,.15,.03,.04,.02,.09,.05,.12,.09,.07,.1,.13,.22,.16,.34l.62,.03,.03-.03v-1.07c-.15-.03-.3-.05-.46-.05-.21,0-.41,.05-.6,.15-.2,.11-.38,.27-.52,.46h-.06l.05-.55-.03-.03h-1.38l-.03,.02v.28c.09,.01,.17,.04,.24,.09,.05,.03,.08,.08,.1,.13,.03,.07,.04,.14,.04,.22v2c0,.17,0,.34-.02,.51-.01,.08-.04,.15-.09,.22-.06,.07-.15,.11-.24,.13l-.03,.23Zm3.87,.03l-.03-.03,.02-.23,.04-.03s.09-.01,.13-.04c.04-.02,.07-.05,.1-.08,.03-.04,.05-.08,.06-.13,.02-.07,.03-.14,.03-.21v-4.14c0-.06-.03-.12-.06-.17-.02-.04-.06-.08-.1-.1-.07-.03-.14-.05-.22-.07v-.26l.99-.05h.45l.03,.03-.03,4.38c0,.17,0,.34,.03,.51,0,.08,.04,.16,.09,.22,.07,.07,.15,.11,.25,.13v.23l-.03,.02h-1.74Zm3.62-.05c.17,.08,.36,.12,.55,.11,.19,0,.38-.05,.55-.15,.2-.11,.38-.26,.53-.43h.06l-.03,.53,.03,.03h.4l.98-.03v-.26c-.08-.01-.17-.04-.24-.09-.05-.03-.08-.08-.1-.13-.02-.07-.04-.14-.04-.22v-.43l.03-4.37-.03-.03h-.45l-.99,.05v.28c.09,.01,.17,.04,.25,.09,.05,.04,.08,.09,.1,.14,.02,.08,.04,.17,.04,.26v.92c-.12-.03-.24-.06-.36-.08-.1-.01-.21-.02-.31-.02-.33,0-.65,.07-.94,.23-.26,.16-.47,.4-.59,.68-.14,.35-.21,.73-.2,1.11-.03,.51,.08,1.01,.32,1.45,.11,.16,.25,.28,.43,.37Zm.82-3.4c.07-.03,.14-.04,.22-.04h0c.09,0,.17,.03,.25,.07,.08,.04,.14,.11,.18,.18,.11,.21,.16,.45,.15,.7v1.26c0,.14-.03,.28-.1,.4-.06,.11-.15,.2-.26,.26-.09,.05-.2,.08-.31,.08-.11,0-.21-.04-.3-.11-.09-.07-.15-.16-.18-.27-.12-.37-.17-.75-.15-1.13,0-.26,.02-.51,.08-.77,.04-.18,.12-.35,.24-.49,.05-.06,.11-.1,.18-.13Zm2.26-6.88H105.32v.28H239.73v-.28Z"/>
</svg>