<?xml version="1.0" encoding="UTF-8"?>
<svg id="Layer_1" data-name="Layer 1" xmlns="http://www.w3.org/2000/svg" viewBox="0 0 300 172">
  <defs>
    <style>
      .cls-1 {
        fill: #101216;
        fill-rule: evenodd;
      }
    </style>
  </defs>
  <path class="cls-1" d="M153.37,97.6c0,.13,.04,.17,.17,.17h2.71c.13,0,.17-.04,.17-.17v-7.59h.77c.02,.29,2.66,6,3.01,6.84,.08,.2,.13,.29,.22,.5,.06,.16,.14,.41,.31,.41h2.99c.23,0,.33-.48,.51-.88l.9-2c.15-.37,.29-.65,.45-1l1.31-2.97c.46-1.1,.3-.92,1.19-.92v7.59c0,.13,.04,.17,.17,.17h2.71c.13,0,.17-.04,.17-.17v-10.44c0-.28-.74-.17-1.27-.17h-4.48l-3.21,6.98c-.07-.31-.24-.57-.36-.86-.69-1.68-1.69-3.66-2.37-5.31-.12-.3-.29-.81-.47-.81h-5.58v10.61Zm-44.58-3.66c-.7,0-3.49-2.11-3.85-2.77,.17,.07,3.81,2.65,3.85,2.77Zm3.52-17.56c.06-.22,.24-.25,.52-.3,1.66-.27,4.12-.12,5.71,.19,2.78,.54,5.12,1.68,7.18,3.35,.56,.46,1.33,1.22,1.76,1.79,.65,.87,.85,1.1,1.36,2.14,.29,.59,.85,1.95,.84,2.7-.28-1.45-1.39-3.46-2.28-4.59-3.16-4.06-8.48-5.62-13.56-5.29-.43,.03-1.25,.24-1.53,0Zm-10.27,10.08c-.32-2.5,.86-5.85,2.31-7.83,2.87-3.93,7.78-5.03,12.54-4.81,.3,.01,.78,0,.97,.14-3.53-.09-6.65,.16-9.75,1.93-.79,.45-1.33,.92-1.92,1.41-1.61,1.35-3.13,4.19-3.68,6.33-.17,.65-.46,2.82-.47,2.83Zm.15,6.46c.39,.18,1.38,.81,2.2,1.21,5.43,2.67,12.55,2.35,17.44-1.3,.37-.28,.69-.64,1.01-.65-.04,.64-1.27,1.41-1.82,1.74-2.54,1.5-5.99,2.21-9.01,2.21-3.51,0-7.83-1.42-9.83-3.21Zm23.67-2.67l-.2,.33c.23-1.25,.48-1.57,.48-3.09,0-1.1-.26-2.33-.61-3.27-.18-.48-.36-.94-.59-1.36-.12-.22-.67-1.09-.63-1.23,.08-.28,.48,.11,.56,.19,.16,.15,.28,.34,.41,.53,.25,.37,.44,.79,.62,1.27,.67,1.78,.76,4.36,.11,6.22-.04,.12-.1,.27-.16,.4Zm-28.23-3.44c-.13-.35-.33-.75-.48-1.16-.14-.4-.27-.86-.37-1.31-.62-2.83-.44-5.98,.63-8.57-.02,.36-.19,.93-.27,1.32-.28,1.49-.41,2.75-.38,4.31,.06,3.01,.66,3.75,.86,5.41Zm18.71,8.25c-.19-.03-.82,.16-1.08,.22-.38,.08-.74,.14-1.16,.14l-.29,.07c-2.36,.29-5.63-.39-7.73-1.33-2.23-1-3.34-1.83-4.98-3.35-.18-.17-.42-.42-.55-.6l1.04,.89c1.17,.94,2.35,1.73,3.75,2.41,.92,.45,5.62,2.46,6.31,1.57-.15-.37-2.19-1.41-2.75-1.82-1.08-.78-6.2-4.09-6.68-4.81-.2-.3-.63-1.27-.62-1.67,.04,.31,.4,.93,.63,1.02,.25-.13,.66-1.57,.78-1.93,.5-1.4,.83-2.6,1.59-3.92,.28-.49,.77-1.35,1.11-1.67l2.09-2.2c.13-.12,.2-.17,.34-.27,.91-.69,1.99-1.37,3.1-1.86,.35-.16,1.53-.56,1.96-.56-.22,0-.99,.38-1.21,.5-.54,.32-1.26,1.08-.25,1.18,.45,.05,2.68-.21,4.25-.12,1.24,.07,2.65,.3,3.84,.67l.46,.19,1.64,.65c.14,.07,.19,.12,.32,.18,.64,.33,2.41,1.5,2.71,2.02,.2,.16,.27,.23,.4,.48-.52-.12-1.34-.46-1.78-.05-.12,.5,.45,1.29,.66,1.67,.25,.45,.53,1.05,.74,1.6,.36,.97,.81,3.18,.47,4.03-.09,.17-.05,.28-.09,.54-.17,1.09-.58,2.27-1.15,3.19l-.14,.2c-.07,.18-.2,.43-.41,.42-.21-1.16,.49-2.62-1.61-.91-1.1,.89-2.79,2.09-4.16,2.57-.17,0-.83,.33-1.15,.43-.03,0-.16,.05-.21,.07l-.19,.12Zm-16.93-11.98c0-8.32,8.28-12.68,14.81-14.43,2.19-.59,6.22-1.3,8.47-1.2-.22,.18-3.32,.84-3.89,.98-3.82,.97-7.29,2.06-10.68,3.95-2.14,1.2-4,2.73-5.24,4.53-1.18,1.71-2.58,4.44-2.58,7.17,0,3.42,.96,4.56,2.64,6.96-.77-.56-1.9-1.94-2.45-3.08-.79-1.66-1.09-2.86-1.09-4.88Zm3.19,6.16c.23,.01,6.16,4.29,6.8,4.75,.24,.17,.77,.49,.94,.7-.34,.19-2.05-.63-2.39-.8-1.37-.7-2.76-1.79-3.81-2.85l-1.19-1.32c-.22-.24-.21-.28-.36-.48Zm21.48-21.99l-.12,.04c-.07-.17-.14-.14-.4-.16-1.2-.09-2.6,0-3.79,.09-6.21,.43-12.83,2.13-17.47,6.24-.44,.39-1.4,1.25-1.76,1.68-.35,.41-.69,.77-1.05,1.24-.39,.51-.72,1.15-1.13,1.17-.7-.93,.18-4.2,.4-5.31-.61,.79-1.55,3.14-1.91,4.16-.53,1.55-.92,3.35-.98,5.12-.1,3.3,.91,6.7,3.06,9.1,.28,.31,.45,.53,.71,.79,2.77,2.81,7.29,4.87,11.26,5.37,.97,.12,1.9,.16,2.9,.16,.6,0,2.47-.2,2.82-.03-.07,.32-.36,.44-.62,.61-.27,.18-.49,.3-.78,.44-1.27,.63-2.22,.93-3.65,1.22-.49,.1-1.76,.2-2.07,.42,1.04,.11,4.7-.23,5.81-.44,2.39-.46,4.84-1.4,6.84-2.64,1.15-.71,2.57-1.85,3.4-2.93,.24-.32,1.16-1.5,1.21-1.96l-1.03,1.24c-.09,.11-.17,.17-.27,.28-.11,.13-.17,.2-.29,.33-1.02,1.06-1.99,1.78-3.26,2.57-1.18,.73-5,2.53-6.58,2.68,.29-.01,3.13-1.18,3.6-1.39,2.28-1,4.43-2.35,5.96-4.2,.73-.88,1.43-1.87,1.98-3.14,.28-.65,.47-1.55,.98-1.51,.57,.05,.78,1.1,.84,1.72,.15,1.59-.19,3.12-.63,4.5-.58,1.83-1.7,3.99-2.94,5.36-.2,.22-.81,.83-.89,1.01,.39-.18,2.19-1.99,2.51-2.39l.56-.66c.2-.23,.37-.46,.56-.72,1.94-2.59,3.23-5.89,2.89-9.59-.13-1.46-.45-2.82-1-4.01-.61-1.32-1.21-2.11-1.96-3.05-.11-.13-.19-.19-.31-.3-.29-.31-.6-.68-.94-.95l-1.39-1.11c-.78-.61-1.8-1.13-2.48-1.85-.13-.14-.2-.21-.18-.48,.72-.43,3.31,.39,4.12,.63,.64,.19,1.27,.41,1.86,.64,.52,.2,1.36,.63,1.83,.75-.19-.25-1.52-1.16-1.73-1.29-.62-.4-1.19-.77-1.88-1.12-4.4-2.25-8.65-3.01-13.6-2.63-.78,.06-2.2,.35-.99-.54,2.15-1.6,5.82-2.95,8.34-3.86l3.31-1.2c-.21,.25-2.91,1.23-3.21,1.35-.56,.23-6.77,2.63-4.78,3.59,1.21,.59,5.99,.39,10.84,2.9,1.31,.68,4.72,2.93,5.15,4.1-.8-.33-.89-.5-1.98-.83-.61-.18-1.87-.6-2.33-.12-.16,.34,.93,1.38,1.36,1.93,.82,1.04,1.58,2.31,2.06,3.68,.92,2.65,.96,5.17,.19,7.93-.71,2.57-2.53,5.43-4.23,7.17l-2.41,2.14c-.26,.2-1.04,.8-1.36,.93l.87-1.03c.65-.86,1.79-3.02,1.76-4.12-.03-1.35-1.85-.15-2.39,.13-.85,.45-1.68,.89-2.65,1.23-2.98,1.05-6.65,1.74-9.92,1.64-.63-.02-3.04-.12-3.4-.43,.19-.18,1.02-.24,1.33-.3,.43-.09,.91-.21,1.32-.33,.64-.19,2.1-.61,2.14-1.21-.29-.4-1.68-.51-2.29-.67-.81-.21-1.56-.4-2.33-.66-2.29-.77-4.92-2.05-6.75-3.62-.81-.7-1.59-1.37-2.25-2.25-.45-.59-.82-1.08-1.22-1.78-2.9-5.09-1.96-11.4,1.11-16.28,.28-.45,.92-1.5,1.24-1.76,.06,.92-.22,2.45,1.14,2.23,.67-.11,1.72-.84,2.24-1.15,8.57-5.02,14.54-4.37,15.52-4.77-3.2,0-6.68,.82-9.63,1.63-1.45,.4-2.9,.87-4.37,1.29-.73,.21-1.47,.4-2.5,.32-.5-.04-1.18-.28-1.61-.5-.55-.29-.38-.47-1.13,.53-.21,.28-.38,.53-.57,.82-.19,.29-.37,.54-.55,.84-1.28,2.02-2.4,4.63-2.85,6.95-.18,.9-.28,1.81-.31,2.72v.94c.06,2.02,.52,4.01,1.42,5.82,1.25,2.52,1.99,3.25,3.76,5.3l1.08,1.03c.51,.44,.97,.86,1.51,1.26,.96,.71,1.72,1.8-.07,2.08l-1.24,.2c.07,.26,.15,.21,.55,.39,.72,.32,1.36,.51,2.12,.76,1.61,.53,3.17,.69,4.8,.9,.59,.08,1.28,.04,1.82,.11,.75,.1,3.62-.13,4.57-.21,1.8-.15,4.62-.95,5.86-.89,1.38,.06,.42,1.87,.09,2.5l-1.13,1.76c-.13,.18-.33,.41-.35,.65,.56-.01,2.65-1.18,3.13-1.48,1-.62,1.82-1.23,2.69-1.97,.72-.61,1.15-1.06,1.79-1.71,.85-.85,1.93-2.31,2.52-3.32,.59-1,1.07-2.03,1.48-3.19,.46-1.29,.66-2.46,.84-3.84,.28-2.16-.4-6.08,.56-6.36,.68-.2,1.53,.3,1.97,.31-.02-.28-.26-.56-.4-.77-.48-.73-1.49-2.17-2.07-2.76-.61-.62-.46-.52-1.22-1.23l-1.27-1.12c-2.04-1.69-5.48-3.24-8.03-4.06l-2.75-.85c-.46-.15-1.54-.36-1.24-1.13,.18-.48,1.56-1.32,2.07-1.55,.29-.13,.54-.23,.85-.37,.47-.21,2.76-1.12,3.17-1.38,.04-.03,.06-.04,.1-.07,.07-.06,.03-.03,.09-.09Zm-21.93,19.96s-.02-.02-.03-.03c0,0-.02-.02-.03-.03l-.15-.19c-.07-.1-.09-.14-.14-.25-.24-.58-.3-1.5-.28-2.13,.04-1,.2-1.9,.45-2.8,1.02-3.76,3.94-7.05,7.26-8.86,.42-.23,1.75-.86,2.23-.9-.58,.39-1.1,.6-1.83,1.15-.82,.62-.61,.48-1.22,1.05-.16,.15-.24,.21-.27,.48,.41,0,1.79-.58,2.34-.73,4.25-1.2,8.93-.7,13.07,.64,.79,.25,3.92,1.38,4.18,1.88-.59-.07-1.37-.46-2-.63-.69-.19-1.4-.34-2.14-.46-.92-.16-4.03-.72-4.59-.08,.06,.42,.88,.75,1.29,.95,2.08,1.01,2.03,.78,4.36,2.29,1.17,.76,2.03,1.66,2.95,2.66,2.16,2.39,3.03,6.01,2.69,9.48-.11,1.14-.61,2.48-1.01,3.43-.56,1.34-.87,1.7-1.6,2.8,.02-.21,.63-1.39,.78-1.73,.27-.61,.49-1.21,.7-1.86,2.2-6.94-1.63-13.59-8.25-15.87-2.3-.79-4.22-.94-6.67-.86-.65,.02-1.75,.15-2.3-.02,0-.29,.15-.4,.33-.53,.91-.7,3.04-1.1,4.22-1.13,.03,0,.07,0,.1,0-.03,0-.06,0-.1,0-5.56,.06-10.09,2.41-12.6,7.34-1.24,2.43-1.09,3.26-1.76,4.92Zm-.95-2.85c0,2.63,.62,4.35,1.91,6.17,.53,.75,1.14,1.37,1.76,1.96l1.6,1.23c.2,.13,.44,.23,.55,.41-.67-.18-1.93-.97-2.47-1.31-.39-.25-.76-.52-1.1-.79l-1.02-.87c-.64-.55-1.22-1.25-1.78-2-.51-.68-.98-1.52-1.37-2.41-.84-1.95-1.09-4.21-.54-6.44,.58-2.33,2.01-4.48,3.56-5.95,.32-.31,.66-.58,1-.89,.29-.27,.71-.58,1.05-.83,.36-.27,.69-.5,1.11-.78,1.42-.95,3.24-1.83,5.08-2.52,3.75-1.39,8.62-2.1,12.96-2.1-.02,.11,0,.07-.1,.13-.07,.05-.16,.06-.24,.09-.18,.06-.31,.09-.47,.14l-2.81,.85c-3.99,1.22-7.03,2.14-10.76,4.04-.53,.27-1.06,.62-1.52,.93-3.38,2.31-6.41,6.87-6.41,10.94Zm69.54,.45c0,.13,.04,.17,.17,.17h2.87c.13,0,.17-.04,.17-.17v-8.15c.89,0,.82-.1,1.03,.41,.71,1.78,1.84,4.06,2.59,5.87l.7,1.58c.05,.13,.14,.45,.32,.45h3.21c.2,0,.43-.69,.55-.95l2.82-6.37c.54-1.21,.21-1,1.33-1v8.32h3.04c.13,0,.17-.04,.17-.17v-11.45h-6.14c-.04,.16-.11,.3-.19,.48-.08,.19-.13,.27-.21,.46l-1.26,2.81c-.12,.31-.27,.61-.41,.92-.16,.33-.28,.64-.42,.97-.16,.37-.76,1.61-.83,1.9l-3.43-7.54h-6.08v11.45Zm-21.17-8.43h-7.57c-.3,0-.55-.26-.55-.56v-2.4h-3.37c0,1.41-.14,3.03,.27,4.2,.08,.23,.17,.36,.29,.54,.66,.98,1.64,1.46,2.86,1.46h8.07c0,1.01,.22,2.12-.61,2.12h-10.83v3.24h11.22c2.04,0,3.54-1.37,3.54-3.13v-8.32c0-.13-.04-.17-.17-.17h-3.15v3.02Zm41.79,8.6h3.21v-4.24h1.77c.17,0,1.51,1.39,1.73,1.61l2.6,2.46c.23,.24,.22,.18,.65,.18h4.2c-.05-.18-.57-.61-.75-.75-.17-.13-.24-.24-.4-.38-.17-.15-.25-.2-.41-.36l-3.62-3.27c-.29-.3-1.1-.89-1.17-1.16l1.2-1.02c.15-.15,.25-.2,.41-.36l2.41-2.14c.16-.13,2.31-1.95,2.39-2.17h-4.2c-.89-.01-.67,.31-1.54,1.01l-1.29,1.21c-.16,.16-.28,.29-.44,.45-.16,.16-.28,.22-.44,.39-.17,.18-1.23,1.24-1.37,1.24h-1.72v-4.3h-3.21v11.62Zm-36.7-8.54v8.38c0,.13,.04,.17,.17,.17h2.99c.21,0,.17-.18,.17-.39v-6.26c0-.64-.19-1.73,.55-1.73h10.89v-3.24h-11.55c-1.74,0-3.21,1.46-3.21,3.07Zm-16.58,10.72v7.26c0,1.9,1.18,3.35,3.04,3.35h7.74c.49,0,.93-.13,1.27-.28,1.03-.46,1.77-1.54,1.77-2.9v-7.43c0-.13-.04-.17-.17-.17h-2.82l-.06,6.14c0,.68,.17,1.62-.5,1.62h-6.69c-.74,0-.55-1.08-.55-1.56v-5.81c0-.21,.05-.39-.17-.39h-2.71c-.13,0-.17,.04-.17,.17Zm53.73,2.79v4.86c0,1.57,1.38,2.96,2.93,2.96h7.85c.87,0,1.57-.37,2.03-.79,.78-.72,.93-1.42,.95-2.21v-.96h-2.99c0,.34,.08,.95-.55,.95h-6.63c-.3,0-.55-.28-.55-.45v-3.74c0-.28,.22-.5,.5-.5h6.74c.74,0,.3,.89,.66,.89h2.82v-1.12c0-1.4-1.38-2.79-2.76-2.79h-8.18c-1.46,0-2.82,1.42-2.82,2.9Zm-19.24-2.79v10.44c0,.13,.04,.17,.17,.17h2.87v-7.76h.77c.08,.33,1.09,2.48,1.27,2.9,.53,1.21,1.53,3.34,1.97,4.44,.07,.17,.11,.42,.3,.42h2.99c.22,0,.42-.67,.52-.88l2.88-6.47c.2-.51,.14-.41,.97-.41v7.59c0,.13,.04,.17,.17,.17h2.71c.13,0,.17-.04,.17-.17v-10.44c0-.13-.04-.17-.17-.17h-5.42c-.26,0-.57,.97-.68,1.21-.08,.18-.13,.27-.21,.46-.4,.99-1.13,2.48-1.58,3.54-.07,.17-.13,.25-.2,.41-.14,.34-.53,1.13-.59,1.41-.13-.1-.34-.66-.43-.85l-2.61-5.8c-.06-.16-.1-.38-.28-.38h-5.42c-.13,0-.17,.04-.17,.17Z"/>
</svg>