<svg width="945" height="506" viewBox="0 0 945 506" fill="none" xmlns="http://www.w3.org/2000/svg">
<g opacity="0.6">
<path d="M8.65186 422H0V433.404H8.65186V422Z" fill="#ABBBFE" fill-opacity="0.6"/>
<path d="M4.96251 398.227H3.68359V421.96H4.96251V398.227Z" fill="#ABBBFE" fill-opacity="0.6"/>
<path d="M4.96251 433.398H3.68359V457.132H4.96251V433.398Z" fill="#ABBBFE" fill-opacity="0.6"/>
<path d="M31.4878 427.609H22.8359V453.358H31.4878V427.609Z" fill="white"/>
<path d="M27.8063 403.891H26.5273V427.624H27.8063V403.891Z" fill="white"/>
<path d="M27.8063 453.391H26.5273V477.124H27.8063V453.391Z" fill="white"/>
<path d="M54.3328 396.945H45.6797V463.969H54.3328V396.945Z" fill="#ABBBFE" fill-opacity="0.6"/>
<path d="M50.6383 373.227H49.3594V396.96H50.6383V373.227Z" fill="#ABBBFE" fill-opacity="0.6"/>
<path d="M50.6383 463.945H49.3594V487.679H50.6383V463.945Z" fill="#ABBBFE" fill-opacity="0.6"/>
<path d="M77.1636 430.953H68.5117V482.25H77.1636V430.953Z" fill="white"/>
<path d="M73.4742 407.234H72.1953V430.968H73.4742V407.234Z" fill="white"/>
<path d="M73.4742 482.258H72.1953V505.991H73.4742V482.258Z" fill="white"/>
<path d="M99.9956 400.375H91.3438V426.122H99.9956V400.375Z" fill="#ABBBFE" fill-opacity="0.6"/>
<path d="M96.3141 376.625H95.0352V400.359H96.3141V376.625Z" fill="#ABBBFE" fill-opacity="0.6"/>
<path d="M96.3141 426.125H95.0352V449.858H96.3141V426.125Z" fill="#ABBBFE" fill-opacity="0.6"/>
<path d="M122.843 400.781H114.191V448.361H122.843V400.781Z" fill="white"/>
<path d="M119.154 377.031H117.875V400.765H119.154V377.031Z" fill="white"/>
<path d="M119.154 448.367H117.875V472.101H119.154V448.367Z" fill="white"/>
<path d="M145.679 341.164H137.027V405.789H145.679V341.164Z" fill="#ABBBFE" fill-opacity="0.6"/>
<path d="M141.99 317.414H140.711V341.148H141.99V317.414Z" fill="#ABBBFE" fill-opacity="0.6"/>
<path d="M141.99 405.781H140.711V429.515H141.99V405.781Z" fill="#ABBBFE" fill-opacity="0.6"/>
<path d="M168.515 315.523H159.863V398.234H168.515V315.523Z" fill="white"/>
<path d="M164.834 291.805H163.555V315.538H164.834V291.805Z" fill="white"/>
<path d="M164.834 398.227H163.555V421.96H164.834V398.227Z" fill="white"/>
<path d="M191.359 331.164H182.707V346.868H191.359V331.164Z" fill="#ABBBFE" fill-opacity="0.6"/>
<path d="M187.673 307.391H186.395V331.124H187.673V307.391Z" fill="#ABBBFE" fill-opacity="0.6"/>
<path d="M187.673 346.836H186.395V370.569H187.673V346.836Z" fill="#ABBBFE" fill-opacity="0.6"/>
<path d="M214.192 322.188H205.539V356.796H214.192V322.188Z" fill="white"/>
<path d="M210.505 298.438H209.227V322.171H210.505V298.438Z" fill="white"/>
<path d="M210.505 356.773H209.227V380.507H210.505V356.773Z" fill="white"/>
<path d="M237.023 252.891H228.371V341.289H237.023V252.891Z" fill="#ABBBFE" fill-opacity="0.6"/>
<path d="M233.341 229.141H232.062V252.874H233.341V229.141Z" fill="#ABBBFE" fill-opacity="0.6"/>
<path d="M233.341 341.281H232.062V365.015H233.341V341.281Z" fill="#ABBBFE" fill-opacity="0.6"/>
<path d="M259.871 311.109H251.219V371.344H259.871V311.109Z" fill="white"/>
<path d="M256.189 287.359H254.91V311.093H256.189V287.359Z" fill="white"/>
<path d="M256.189 371.336H254.91V395.069H256.189V371.336Z" fill="white"/>
<path d="M282.703 306.867H274.051V331.84H282.703V306.867Z" fill="#ABBBFE" fill-opacity="0.6"/>
<path d="M279.021 283.148H277.742V306.882H279.021V283.148Z" fill="#ABBBFE" fill-opacity="0.6"/>
<path d="M279.021 331.836H277.742V355.569H279.021V331.836Z" fill="#ABBBFE" fill-opacity="0.6"/>
<path d="M305.539 279.047H296.887V304.414H305.539V279.047Z" fill="white"/>
<path d="M301.857 255.297H300.578V279.03H301.857V255.297Z" fill="white"/>
<path d="M301.857 304.422H300.578V328.155H301.857V304.422Z" fill="white"/>
<path d="M328.386 221.758H319.734V285.216H328.386V221.758Z" fill="#ABBBFE" fill-opacity="0.6"/>
<path d="M324.689 198.008H323.41V221.741H324.689V198.008Z" fill="#ABBBFE" fill-opacity="0.6"/>
<path d="M324.689 285.211H323.41V308.944H324.689V285.211Z" fill="#ABBBFE" fill-opacity="0.6"/>
<path d="M351.218 204.984H342.566V248.443H351.218V204.984Z" fill="white"/>
<path d="M347.529 181.266H346.25V204.999H347.529V181.266Z" fill="white"/>
<path d="M347.529 248.469H346.25V272.202H347.529V248.469Z" fill="white"/>
<path d="M374.058 235.883H365.406V252.886H374.058V235.883Z" fill="#ABBBFE" fill-opacity="0.6"/>
<path d="M370.365 212.164H369.086V235.898H370.365V212.164Z" fill="#ABBBFE" fill-opacity="0.6"/>
<path d="M370.365 252.891H369.086V276.624H370.365V252.891Z" fill="#ABBBFE" fill-opacity="0.6"/>
<path d="M396.894 262.477H388.242V280.788H396.894V262.477Z" fill="white"/>
<path d="M393.213 238.758H391.934V262.491H393.213V238.758Z" fill="white"/>
<path d="M393.213 280.789H391.934V304.523H393.213V280.789Z" fill="white"/>
<path d="M419.73 231.141H411.078V252.615H419.73V231.141Z" fill="#ABBBFE" fill-opacity="0.6"/>
<path d="M416.045 207.422H414.766V231.155H416.045V207.422Z" fill="#ABBBFE" fill-opacity="0.6"/>
<path d="M416.045 252.625H414.766V276.358H416.045V252.625Z" fill="#ABBBFE" fill-opacity="0.6"/>
<path d="M442.57 211.609H433.918V283.647H442.57V211.609Z" fill="white"/>
<path d="M438.88 187.891H437.602V211.624H438.88V187.891Z" fill="white"/>
<path d="M438.88 283.641H437.602V307.374H438.88V283.641Z" fill="white"/>
<path d="M465.402 225.391H456.75V242.472H465.402V225.391Z" fill="#ABBBFE" fill-opacity="0.6"/>
<path d="M461.713 201.641H460.434V225.374H461.713V201.641Z" fill="#ABBBFE" fill-opacity="0.6"/>
<path d="M461.713 242.484H460.434V266.218H461.713V242.484Z" fill="#ABBBFE" fill-opacity="0.6"/>
<path d="M488.242 260.008H479.59V371.347H488.242V260.008Z" fill="white"/>
<path d="M484.556 236.289H483.277V260.023H484.556V236.289Z" fill="white"/>
<path d="M484.556 371.336H483.277V395.069H484.556V371.336Z" fill="white"/>
<path d="M511.082 295.961H502.43V314.92H511.082V295.961Z" fill="#ABBBFE" fill-opacity="0.6"/>
<path d="M507.388 272.242H506.109V295.976H507.388V272.242Z" fill="#ABBBFE" fill-opacity="0.6"/>
<path d="M507.388 314.945H506.109V338.679H507.388V314.945Z" fill="#ABBBFE" fill-opacity="0.6"/>
<path d="M533.917 254.023H525.266V320.744H533.917V254.023Z" fill="white"/>
<path d="M530.232 230.273H528.953V254.007H530.232V230.273Z" fill="white"/>
<path d="M530.232 320.727H528.953V344.46H530.232V320.727Z" fill="white"/>
<path d="M556.753 226.727H548.102V280.796H556.753V226.727Z" fill="#ABBBFE" fill-opacity="0.6"/>
<path d="M553.064 203.008H551.785V226.741H553.064V203.008Z" fill="#ABBBFE" fill-opacity="0.6"/>
<path d="M553.064 280.789H551.785V304.523H553.064V280.789Z" fill="#ABBBFE" fill-opacity="0.6"/>
<path d="M579.593 207.859H570.941V227.016H579.593V207.859Z" fill="white"/>
<path d="M575.908 184.141H574.629V207.874H575.908V184.141Z" fill="white"/>
<path d="M575.908 227.016H574.629V250.749H575.908V227.016Z" fill="white"/>
<path d="M602.433 185.453H593.781V265.764H602.433V185.453Z" fill="#ABBBFE" fill-opacity="0.6"/>
<path d="M598.74 161.734H597.461V185.468H598.74V161.734Z" fill="#ABBBFE" fill-opacity="0.6"/>
<path d="M598.74 265.766H597.461V289.499H598.74V265.766Z" fill="#ABBBFE" fill-opacity="0.6"/>
<path d="M625.269 134.492H616.617V252.643H625.269V134.492Z" fill="white"/>
<path d="M621.572 110.75H620.293V134.483H621.572V110.75Z" fill="white"/>
<path d="M621.572 252.625H620.293V276.358H621.572V252.625Z" fill="white"/>
<path d="M648.011 211.609H639.359V271.635H648.011V211.609Z" fill="#ABBBFE" fill-opacity="0.6"/>
<path d="M644.322 187.891H643.043V211.624H644.322V187.891Z" fill="#ABBBFE" fill-opacity="0.6"/>
<path d="M644.322 271.633H643.043V295.366H644.322V271.633Z" fill="#ABBBFE" fill-opacity="0.6"/>
<path d="M670.941 216.055H662.289V235.823H670.941V216.055Z" fill="white"/>
<path d="M667.259 192.312H665.98V216.046H667.259V192.312Z" fill="white"/>
<path d="M667.259 235.82H665.98V259.554H667.259V235.82Z" fill="white"/>
<path d="M694.339 208.359H685.688V223.839H694.339V208.359Z" fill="#ABBBFE" fill-opacity="0.6"/>
<path d="M690.654 184.609H689.375V208.343H690.654V184.609Z" fill="#ABBBFE" fill-opacity="0.6"/>
<path d="M690.654 223.852H689.375V247.585H690.654V223.852Z" fill="#ABBBFE" fill-opacity="0.6"/>
<path d="M716.621 119.555H707.969V189.013H716.621V119.555Z" fill="white"/>
<path d="M712.935 95.8047H711.656V119.538H712.935V95.8047Z" fill="white"/>
<path d="M712.935 189H711.656V212.733H712.935V189Z" fill="white"/>
<path d="M739.46 176.094H730.809V224.467H739.46V176.094Z" fill="#ABBBFE" fill-opacity="0.6"/>
<path d="M735.771 152.375H734.492V176.108H735.771V152.375Z" fill="#ABBBFE" fill-opacity="0.6"/>
<path d="M735.771 224.484H734.492V248.218H735.771V224.484Z" fill="#ABBBFE" fill-opacity="0.6"/>
<path d="M762.293 179.523H753.641V263.367H762.293V179.523Z" fill="white"/>
<path d="M758.611 155.773H757.332V179.507H758.611V155.773Z" fill="white"/>
<path d="M758.611 263.352H757.332V287.085H758.611V263.352Z" fill="white"/>
<path d="M785.136 197.859H776.484V213.095H785.136V197.859Z" fill="#ABBBFE" fill-opacity="0.6"/>
<path d="M781.451 174.117H780.172V197.851H781.451V174.117Z" fill="#ABBBFE" fill-opacity="0.6"/>
<path d="M781.451 213.094H780.172V236.827H781.451V213.094Z" fill="#ABBBFE" fill-opacity="0.6"/>
<path d="M807.976 112.406H799.324V173.507H807.976V112.406Z" fill="white"/>
<path d="M804.279 88.6875H803V112.421H804.279V88.6875Z" fill="white"/>
<path d="M804.279 173.5H803V197.233H804.279V173.5Z" fill="white"/>
<path d="M830.804 147.398H822.152V162.225H830.804V147.398Z" fill="#ABBBFE" fill-opacity="0.6"/>
<path d="M827.123 123.656H825.844V147.39H827.123V123.656Z" fill="#ABBBFE" fill-opacity="0.6"/>
<path d="M827.123 162.195H825.844V185.929H827.123V162.195Z" fill="#ABBBFE" fill-opacity="0.6"/>
<path d="M853.648 140.977H844.996V224.435H853.648V140.977Z" fill="white"/>
<path d="M849.963 117.227H848.684V140.96H849.963V117.227Z" fill="white"/>
<path d="M849.963 224.43H848.684V248.163H849.963V224.43Z" fill="white"/>
<path d="M876.492 108.977H867.84V132.09H876.492V108.977Z" fill="#ABBBFE" fill-opacity="0.6"/>
<path d="M872.798 85.2812H871.52V109.015H872.798V85.2812Z" fill="#ABBBFE" fill-opacity="0.6"/>
<path d="M872.798 132.109H871.52V155.843H872.798V132.109Z" fill="#ABBBFE" fill-opacity="0.6"/>
<path d="M899.32 93.8281H890.668V106.702H899.32V93.8281Z" fill="white"/>
<path d="M895.638 70.0781H894.359V93.8116H895.638V70.0781Z" fill="white"/>
<path d="M895.638 106.68H894.359V130.413H895.638V106.68Z" fill="white"/>
<path d="M922.168 23.75H913.516V91.272H922.168V23.75Z" fill="#ABBBFE" fill-opacity="0.6"/>
<path d="M918.482 0H917.203V23.7335H918.482V0Z" fill="#ABBBFE" fill-opacity="0.6"/>
<path d="M918.482 91.2422H917.203V114.976H918.482V91.2422Z" fill="#ABBBFE" fill-opacity="0.6"/>
<path d="M944.999 28.1641H936.348V48.6341H944.999V28.1641Z" fill="white"/>
<path d="M941.318 4.42188H940.039V28.1554H941.318V4.42188Z" fill="white"/>
<path d="M941.318 48.6328H940.039V72.3663H941.318V48.6328Z" fill="white"/>
</g>
</svg>
