<svg xmlns="http://www.w3.org/2000/svg" viewBox="0 0 47.5 36.6">
  <polygon fill="none" points="22.34 4.22 16.77 12.21 16.77 16.89 30.74 16.89 30.74 12.21 25.18 4.22 22.34 4.22" />
  <path fill="#010101"
    d="M20.87,1.41l-6.9,9.92v15.42h2.79v-7.04h13.97v7.04h2.79V11.33h0L26.63,1.41s-5.76,0-5.76,0Zm9.87,15.48h-13.97v-4.68l5.56-7.99h2.84l5.56,7.99v4.68h.01Z" />
  <polygon fill="#010101"
    points="0 8.46 0 21.1 5.89 29.56 11.18 29.56 11.18 26.75 7.34 26.75 7.33 26.75 2.79 20.22 2.79 9.35 7.34 2.82 11.18 2.82 11.18 0 5.89 0 0 8.46" />
  <polygon fill="#010101"
    points="41.61 0 36.32 0 36.32 2.82 40.16 2.82 44.7 9.35 44.7 20.22 40.16 26.75 36.32 26.75 36.32 29.56 41.61 29.56 47.5 21.1 47.5 8.46 41.61 0" />
</svg>