<svg width="476" height="375" viewBox="0 0 476 375" fill="none" xmlns="http://www.w3.org/2000/svg">
<rect x="0.25" y="0.25" width="109.5" height="14.5" rx="1.75" fill="white" stroke="#ABBBFE" stroke-width="0.5" stroke-dasharray="2 2"/>
<rect x="0.25" y="20.25" width="109.5" height="14.5" rx="1.75" fill="white" stroke="#ABBBFE" stroke-width="0.5" stroke-dasharray="2 2"/>
<rect x="0.25" y="40.25" width="109.5" height="14.5" rx="1.75" fill="white" stroke="#ABBBFE" stroke-width="0.5" stroke-dasharray="2 2"/>
<rect x="0.25" y="60.25" width="109.5" height="14.5" rx="1.75" fill="white" stroke="#ABBBFE" stroke-width="0.5" stroke-dasharray="2 2"/>
<rect x="0.25" y="80.25" width="109.5" height="14.5" rx="1.75" fill="white" stroke="#ABBBFE" stroke-width="0.5" stroke-dasharray="2 2"/>
<rect x="0.25" y="100.25" width="109.5" height="14.5" rx="1.75" fill="white" stroke="#ABBBFE" stroke-width="0.5" stroke-dasharray="2 2"/>
<rect x="0.25" y="120.25" width="109.5" height="14.5" rx="1.75" fill="white" stroke="#ABBBFE" stroke-width="0.5" stroke-dasharray="2 2"/>
<rect x="0.25" y="140.25" width="109.5" height="14.5" rx="1.75" fill="white" stroke="#ABBBFE" stroke-width="0.5" stroke-dasharray="2 2"/>
<rect x="0.25" y="160.25" width="109.5" height="14.5" rx="1.75" fill="white" stroke="#ABBBFE" stroke-width="0.5" stroke-dasharray="2 2"/>
<rect x="0.25" y="180.25" width="109.5" height="14.5" rx="1.75" fill="white" stroke="#ABBBFE" stroke-width="0.5" stroke-dasharray="2 2"/>
<rect x="0.25" y="200.25" width="109.5" height="14.5" rx="1.75" fill="white" stroke="#ABBBFE" stroke-width="0.5" stroke-dasharray="2 2"/>
<rect x="0.25" y="220.25" width="109.5" height="14.5" rx="1.75" fill="white" stroke="#ABBBFE" stroke-width="0.5" stroke-dasharray="2 2"/>
<rect x="0.25" y="240.25" width="109.5" height="14.5" rx="1.75" fill="white" stroke="#ABBBFE" stroke-width="0.5" stroke-dasharray="2 2"/>
<rect x="0.25" y="260.25" width="109.5" height="14.5" rx="1.75" fill="white" stroke="#ABBBFE" stroke-width="0.5" stroke-dasharray="2 2"/>
<rect x="0.25" y="280.25" width="109.5" height="14.5" rx="1.75" fill="white" stroke="#ABBBFE" stroke-width="0.5" stroke-dasharray="2 2"/>
<rect x="0.25" y="300.25" width="109.5" height="14.5" rx="1.75" fill="white" stroke="#ABBBFE" stroke-width="0.5" stroke-dasharray="2 2"/>
<rect x="0.25" y="320.25" width="109.5" height="14.5" rx="1.75" fill="white" stroke="#ABBBFE" stroke-width="0.5" stroke-dasharray="2 2"/>
<rect x="0.25" y="340.25" width="109.5" height="14.5" rx="1.75" fill="white" stroke="#ABBBFE" stroke-width="0.5" stroke-dasharray="2 2"/>
<rect x="0.25" y="360.25" width="109.5" height="14.5" rx="1.75" fill="#ABBBFE" stroke="#ABBBFE" stroke-width="0.5" stroke-dasharray="2 2"/>
<rect x="122.25" y="120.25" width="109.5" height="14.5" rx="1.75" fill="white" stroke="#ABBBFE" stroke-width="0.5" stroke-dasharray="2 2"/>
<rect x="122.25" y="140.25" width="109.5" height="14.5" rx="1.75" fill="white" stroke="#ABBBFE" stroke-width="0.5" stroke-dasharray="2 2"/>
<rect x="122.25" y="160.25" width="109.5" height="14.5" rx="1.75" fill="white" stroke="#ABBBFE" stroke-width="0.5" stroke-dasharray="2 2"/>
<rect x="122.25" y="180.25" width="109.5" height="14.5" rx="1.75" fill="white" stroke="#ABBBFE" stroke-width="0.5" stroke-dasharray="2 2"/>
<rect x="122.25" y="200.25" width="109.5" height="14.5" rx="1.75" fill="white" stroke="#ABBBFE" stroke-width="0.5" stroke-dasharray="2 2"/>
<rect x="122.25" y="220.25" width="109.5" height="14.5" rx="1.75" fill="white" stroke="#ABBBFE" stroke-width="0.5" stroke-dasharray="2 2"/>
<rect x="122.25" y="240.25" width="109.5" height="14.5" rx="1.75" fill="white" stroke="#ABBBFE" stroke-width="0.5" stroke-dasharray="2 2"/>
<rect x="122.25" y="260.25" width="109.5" height="14.5" rx="1.75" fill="white" stroke="#ABBBFE" stroke-width="0.5" stroke-dasharray="2 2"/>
<rect x="122.25" y="280.25" width="109.5" height="14.5" rx="1.75" fill="#ABBBFE" stroke="#ABBBFE" stroke-width="0.5" stroke-dasharray="2 2"/>
<rect x="122.25" y="300.25" width="109.5" height="14.5" rx="1.75" fill="#ABBBFE" stroke="#ABBBFE" stroke-width="0.5" stroke-dasharray="2 2"/>
<rect x="122.25" y="320.25" width="109.5" height="14.5" rx="1.75" fill="#ABBBFE" stroke="#ABBBFE" stroke-width="0.5" stroke-dasharray="2 2"/>
<rect x="122.25" y="340.25" width="109.5" height="14.5" rx="1.75" fill="#ABBBFE" stroke="#ABBBFE" stroke-width="0.5" stroke-dasharray="2 2"/>
<rect x="122.25" y="360.25" width="109.5" height="14.5" rx="1.75" fill="#ABBBFE" stroke="#ABBBFE" stroke-width="0.5" stroke-dasharray="2 2"/>
<rect x="244.25" y="160.25" width="109.5" height="14.5" rx="1.75" fill="white" stroke="#ABBBFE" stroke-width="0.5" stroke-dasharray="2 2"/>
<rect x="244.25" y="180.25" width="109.5" height="14.5" rx="1.75" fill="white" stroke="#ABBBFE" stroke-width="0.5" stroke-dasharray="2 2"/>
<rect x="244.25" y="200.25" width="109.5" height="14.5" rx="1.75" fill="white" stroke="#ABBBFE" stroke-width="0.5" stroke-dasharray="2 2"/>
<rect x="244.25" y="220.25" width="109.5" height="14.5" rx="1.75" fill="white" stroke="#ABBBFE" stroke-width="0.5" stroke-dasharray="2 2"/>
<rect x="244.25" y="240.25" width="109.5" height="14.5" rx="1.75" fill="white" stroke="#ABBBFE" stroke-width="0.5" stroke-dasharray="2 2"/>
<rect x="244.25" y="260.25" width="109.5" height="14.5" rx="1.75" fill="white" stroke="#ABBBFE" stroke-width="0.5" stroke-dasharray="2 2"/>
<rect x="244.25" y="280.25" width="109.5" height="14.5" rx="1.75" fill="white" stroke="#ABBBFE" stroke-width="0.5" stroke-dasharray="2 2"/>
<rect x="244.25" y="300.25" width="109.5" height="14.5" rx="1.75" fill="white" stroke="#ABBBFE" stroke-width="0.5" stroke-dasharray="2 2"/>
<rect x="244.25" y="320.25" width="109.5" height="14.5" rx="1.75" fill="#ABBBFE" stroke="#ABBBFE" stroke-width="0.5" stroke-dasharray="2 2"/>
<rect x="244.25" y="340.25" width="109.5" height="14.5" rx="1.75" fill="#ABBBFE" stroke="#ABBBFE" stroke-width="0.5" stroke-dasharray="2 2"/>
<rect x="244.25" y="360.25" width="109.5" height="14.5" rx="1.75" fill="#ABBBFE" stroke="#ABBBFE" stroke-width="0.5" stroke-dasharray="2 2"/>
<rect x="366.25" y="160.25" width="109.5" height="14.5" rx="1.75" fill="white" stroke="#ABBBFE" stroke-width="0.5" stroke-dasharray="2 2"/>
<rect x="366.25" y="180.25" width="109.5" height="14.5" rx="1.75" fill="white" stroke="#ABBBFE" stroke-width="0.5" stroke-dasharray="2 2"/>
<rect x="366.25" y="200.25" width="109.5" height="14.5" rx="1.75" fill="white" stroke="#ABBBFE" stroke-width="0.5" stroke-dasharray="2 2"/>
<rect x="366.25" y="220.25" width="109.5" height="14.5" rx="1.75" fill="white" stroke="#ABBBFE" stroke-width="0.5" stroke-dasharray="2 2"/>
<rect x="366.25" y="240.25" width="109.5" height="14.5" rx="1.75" fill="white" stroke="#ABBBFE" stroke-width="0.5" stroke-dasharray="2 2"/>
<rect x="366.25" y="260.25" width="109.5" height="14.5" rx="1.75" fill="#ABBBFE" stroke="#ABBBFE" stroke-width="0.5" stroke-dasharray="2 2"/>
<rect x="366.25" y="280.25" width="109.5" height="14.5" rx="1.75" fill="#ABBBFE" stroke="#ABBBFE" stroke-width="0.5" stroke-dasharray="2 2"/>
<rect x="366.25" y="300.25" width="109.5" height="14.5" rx="1.75" fill="#ABBBFE" stroke="#ABBBFE" stroke-width="0.5" stroke-dasharray="2 2"/>
<rect x="366.25" y="320.25" width="109.5" height="14.5" rx="1.75" fill="#ABBBFE" stroke="#ABBBFE" stroke-width="0.5" stroke-dasharray="2 2"/>
<rect x="366.25" y="340.25" width="109.5" height="14.5" rx="1.75" fill="#ABBBFE" stroke="#ABBBFE" stroke-width="0.5" stroke-dasharray="2 2"/>
<rect x="366.25" y="360.25" width="109.5" height="14.5" rx="1.75" fill="#ABBBFE" stroke="#ABBBFE" stroke-width="0.5" stroke-dasharray="2 2"/>
</svg>
